<svg xmlns="http://www.w3.org/2000/svg" viewBox="0 0 128 128" width="300" height="300" version="1.1" xmlns:xlink="http://www.w3.org/1999/xlink" xmlns:svgjs="http://svgjs.dev/svgjs"><g width="100%" height="100%" transform="matrix(1,0,0,1,0,0)"><g id="Outline"><g id="Outline-2" data-name="Outline"><path d="M114.5,0H13.5A13.515,13.515,0,0,0,0,13.5v87A13.515,13.515,0,0,0,13.5,114H31.75v6.5a7.508,7.508,0,0,0,7.5,7.5h49.5a7.508,7.508,0,0,0,7.5-7.5V114H114.5A13.515,13.515,0,0,0,128,100.5v-87A13.515,13.515,0,0,0,114.5,0ZM93.25,120.5a4.505,4.505,0,0,1-4.5,4.5H39.25a4.505,4.505,0,0,1-4.5-4.5V41a4.505,4.505,0,0,1,4.5-4.5h9.544l2.239,4.666a7.164,7.164,0,0,0,6.3,4.354H71a7.164,7.164,0,0,0,6.3-4.354L79.545,36.5h9.2a4.505,4.505,0,0,1,4.5,4.5Zm-41.129-84h24.1L74.6,39.868A4.212,4.212,0,0,1,71,42.52H57.336a4.213,4.213,0,0,1-3.6-2.652ZM125,100.5A10.512,10.512,0,0,1,114.5,111H96.25V41a7.508,7.508,0,0,0-7.5-7.5H39.25a7.508,7.508,0,0,0-7.5,7.5v70H13.5A10.512,10.512,0,0,1,3,100.5V30H125ZM125,27H3V13.5A10.512,10.512,0,0,1,13.5,3h101A10.512,10.512,0,0,1,125,13.5Z" fill="#000000" fill-opacity="1" data-original-color="#000000ff" stroke="none" stroke-opacity="1"/><path d="M15.5,11A4.5,4.5,0,1,0,20,15.5,4.505,4.505,0,0,0,15.5,11Zm0,6A1.5,1.5,0,1,1,17,15.5,1.5,1.5,0,0,1,15.5,17Z" fill="#000000" fill-opacity="1" data-original-color="#000000ff" stroke="none" stroke-opacity="1"/><path d="M47.5,11A4.5,4.5,0,1,0,52,15.5,4.505,4.505,0,0,0,47.5,11Zm0,6A1.5,1.5,0,1,1,49,15.5,1.5,1.5,0,0,1,47.5,17Z" fill="#000000" fill-opacity="1" data-original-color="#000000ff" stroke="none" stroke-opacity="1"/><path d="M31.5,11A4.5,4.5,0,1,0,36,15.5,4.505,4.505,0,0,0,31.5,11Zm0,6A1.5,1.5,0,1,1,33,15.5,1.5,1.5,0,0,1,31.5,17Z" fill="#000000" fill-opacity="1" data-original-color="#000000ff" stroke="none" stroke-opacity="1"/><path d="M111.5,11h-16a4.5,4.5,0,0,0,0,9h16a4.5,4.5,0,0,0,0-9Zm0,6h-16a1.5,1.5,0,0,1,0-3h16a1.5,1.5,0,0,1,0,3Z" fill="#000000" fill-opacity="1" data-original-color="#000000ff" stroke="none" stroke-opacity="1"/><path d="M52.542,71.519a4.665,4.665,0,0,0-6.5.712l-7.092,8.892a4.591,4.591,0,0,0,0,5.749l7.072,8.865a4.612,4.612,0,1,0,7.229-5.728L48.454,84l4.8-6.014A4.612,4.612,0,0,0,52.542,71.519Zm-1.637,4.593-5.543,6.949a1.5,1.5,0,0,0,0,1.871l5.543,6.948a1.62,1.62,0,0,1-.275,2.282,1.638,1.638,0,0,1-2.243-.271L41.3,85a1.606,1.606,0,0,1,0-2.009l7.111-8.915a1.64,1.64,0,0,1,2.246-.231A1.614,1.614,0,0,1,50.905,76.112Z" fill="#000000" fill-opacity="1" data-original-color="#000000ff" stroke="none" stroke-opacity="1"/><path d="M81.953,72.252a4.611,4.611,0,1,0-7.222,5.735L79.539,84,74.731,90a4.612,4.612,0,0,0,.7,6.464,4.66,4.66,0,0,0,6.5-.7l7.113-8.89a4.586,4.586,0,0,0,0-5.76ZM86.7,85,79.57,93.917a1.638,1.638,0,0,1-2.244.227,1.615,1.615,0,0,1-.252-2.266l5.557-6.945a1.5,1.5,0,0,0,0-1.874l-5.577-6.971A1.611,1.611,0,0,1,79.59,74.1L86.7,82.99A1.6,1.6,0,0,1,86.7,85Z" fill="#000000" fill-opacity="1" data-original-color="#000000ff" stroke="none" stroke-opacity="1"/><path d="M67.063,70.645a4.5,4.5,0,0,0-5.5,3.4l-.008.034L57.488,91.816A4.674,4.674,0,0,0,61.869,97.5a4.615,4.615,0,0,0,4.6-3.583L70.549,76.1A4.5,4.5,0,0,0,67.063,70.645Zm.555,4.822L63.543,93.245A1.614,1.614,0,0,1,61.935,94.5,1.644,1.644,0,0,1,60.4,92.525l4.07-17.758a1.611,1.611,0,0,1,3.145.7Z" fill="#000000" fill-opacity="1" data-original-color="#000000ff" stroke="none" stroke-opacity="1"/></g></g></g></svg>