<svg width="66" height="30" viewBox="0 0 66 30" fill="none" xmlns="http://www.w3.org/2000/svg">
    <g clip-path="url(#clip0_13_2930)">
        <path
            d="M32.2544 6.10473C33.8281 6.10473 35.1039 4.84866 35.1039 3.29919C35.1039 1.74974 33.8281 0.493652 32.2544 0.493652C30.6806 0.493652 29.4048 1.74974 29.4048 3.29919C29.4048 4.84866 30.6806 6.10473 32.2544 6.10473Z"
            fill="#FF7E61" />
        <path
            d="M8.18201 15.1468L15.4918 7.94989C15.6177 7.82599 15.5283 7.61124 15.3493 7.61124H9.44315C9.39005 7.61124 9.33975 7.63328 9.3006 7.6691L5.49463 11.4162V1.57341C5.49463 1.433 5.34921 1.33664 5.21778 1.38895L1.0399 3.05465C0.964398 3.08494 0.914062 3.15652 0.914062 3.23912V22.6246C0.914062 22.8063 1.06507 22.955 1.24963 22.955H5.15905C5.34361 22.955 5.49463 22.8063 5.49463 22.6246V18.8775L9.58298 22.9C9.61939 22.9357 9.6725 22.9578 9.72561 22.9578L15.6345 22.955C15.8135 22.955 15.903 22.7403 15.7771 22.6164L8.18201 15.1468Z"
            fill="white" />
        <path
            d="M30.2989 22.9548H34.2083C34.3929 22.9548 34.544 22.8061 34.544 22.6244V7.94415C34.544 7.76247 34.3929 7.61377 34.2083 7.61377H30.2989C30.1144 7.61377 29.9634 7.76247 29.9634 7.94415V22.6271C29.9662 22.8089 30.1144 22.9548 30.2989 22.9548Z"
            fill="white" />
        <path fill-rule="evenodd" clip-rule="evenodd"
            d="M58.0004 7.63028C61.8427 7.88911 64.9552 10.9535 65.2236 14.7336C65.5396 19.2214 61.9378 22.9548 57.4523 22.9575C56.3058 22.9575 55.218 22.7097 54.2392 22.272V27.2415C54.2392 27.3765 54.1581 27.4976 54.0295 27.5472L49.9355 29.1798C49.8041 29.2322 49.6587 29.1385 49.6587 28.9954V15.2843H49.6615C49.6615 10.8653 53.4478 7.32191 58.0004 7.63028ZM54.2392 15.2843C54.2392 17.0298 55.6766 18.4477 57.4523 18.4477C59.2253 18.4477 60.6627 17.0298 60.6627 15.2843C60.6627 13.5387 59.2253 12.1208 57.4523 12.1208C55.6766 12.1208 54.2392 13.5387 54.2392 15.2843Z"
            fill="white" />
        <path
            d="M42.2644 11.3086C42.2785 11.3086 42.2952 11.3086 42.3092 11.3113C43.0614 11.2811 43.7382 11.7546 44.2891 12.4953C44.3786 12.6164 44.5408 12.6577 44.6806 12.6026L47.8294 11.3554C48.0028 11.2866 48.0867 11.0911 48.014 10.9204C47.2225 9.04267 44.8148 7.61377 42.2617 7.61377C38.9283 7.61377 36.2214 9.70075 36.2214 12.275C36.2214 13.6544 37.0379 14.852 38.1593 15.6339C39.166 16.336 40.3685 16.7903 41.5542 17.0931C41.5737 17.0987 41.5933 17.1035 41.6129 17.1083C41.6325 17.1131 41.652 17.1179 41.6716 17.1234C43.2712 17.4731 43.5005 17.8888 43.5005 18.2991C43.5005 18.8332 42.8433 19.2655 42.0352 19.2655C41.199 19.3177 40.458 18.7533 39.8763 17.8943C39.7896 17.7649 39.619 17.7182 39.4737 17.776L36.3612 19.0314C36.1906 19.1002 36.1123 19.2875 36.1767 19.4582C37.0687 21.837 39.4737 22.9603 42.0352 22.9603C45.3685 22.9603 48.0754 20.8761 48.0754 18.2991C48.0754 17.7374 47.9468 17.2005 47.7092 16.7022C47.4826 16.2259 46.8926 15.2127 45.3658 14.5106C44.9851 14.3365 44.3102 14.1047 43.6013 13.8612C42.6851 13.5466 41.712 13.2124 41.2438 12.9578C40.9585 12.8036 40.7963 12.5475 40.7963 12.275C40.7963 11.7409 41.4563 11.3086 42.2644 11.3086Z"
            fill="white" />
        <path
            d="M28.3492 7.88637C28.4023 7.75696 28.3044 7.61377 28.1618 7.61377H25.2116C20.9191 7.61377 17.4375 11.0416 17.4375 15.2677V22.6244C17.4375 22.8061 17.5885 22.9548 17.7731 22.9548H21.6824C21.867 22.9548 22.0152 22.8089 22.0152 22.6271V15.2677C22.0152 13.5277 23.447 12.118 25.2144 12.118H26.4503C26.5314 12.118 26.6042 12.0713 26.6349 11.9969L28.3492 7.88637Z"
            fill="white" />
    </g>
    <defs>
        <clipPath id="clip0_13_2930">
            <rect width="65" height="29" fill="white" transform="translate(0.603516 0.202637)" />
        </clipPath>
    </defs>
</svg>
