<svg width="131" height="39" viewBox="0 0 131 39" fill="none" xmlns="http://www.w3.org/2000/svg">
    <g clip-path="url(#clip0_13_2922)">
        <path fill-rule="evenodd" clip-rule="evenodd"
            d="M17.2783 1.49774C18.9656 -0.229064 21.7253 -0.229064 23.4117 1.49774L38.8308 17.2754C40.5163 19.0002 40.5163 21.8264 38.8308 23.5532L28.0466 34.5876C27.2578 35.3948 26.1676 35.8935 24.9648 35.8935H15.7271C14.6312 35.8935 13.6312 35.4803 12.8641 34.798L1.86763 23.5445C0.182145 21.8187 0.182145 18.9945 1.86763 17.2677L17.2783 1.49774ZM22.9826 30.3008L21.4445 31.8749C21.3319 31.9902 21.176 32.0613 21.0042 32.0613H19.6867C19.53 32.0613 19.3882 32.0027 19.2774 31.9047L17.7092 30.2989C17.4698 30.0539 17.4698 29.6513 17.7092 29.4043L19.9074 27.1548C20.1487 26.9078 20.5431 26.9078 20.7826 27.1548L22.9826 29.4053C23.2239 29.6513 23.2239 30.0539 22.9826 30.3008ZM22.9826 20.8616L16.8323 27.1557C16.7186 27.271 16.5637 27.3421 16.3928 27.3421H15.0745C14.9186 27.3421 14.7749 27.2835 14.666 27.1855L13.097 25.5807C12.8566 25.3338 12.8566 24.9302 13.097 24.6851L19.9074 17.7155C20.1487 17.4695 20.5431 17.4695 20.7835 17.7155L22.9826 19.966C23.2239 20.212 23.2239 20.6156 22.9826 20.8616ZM22.9826 11.4223L12.2209 22.4356C12.1063 22.5509 11.9514 22.622 11.7805 22.622H10.4631C10.3072 22.622 10.1636 22.5634 10.0547 22.4654L8.48466 20.8597C8.24428 20.6146 8.24428 20.211 8.48466 19.9641L19.9074 8.27521C20.1487 8.02825 20.5412 8.02825 20.7826 8.27521L22.9826 10.5267C23.2239 10.7727 23.2239 11.1763 22.9826 11.4223Z"
            fill="#26A943" />
        <path
            d="M113.415 14.7001V8.07544H108.749V32.0835H113.415V15.4026L119.137 31.0072C119.269 31.3426 119.333 31.7125 119.333 32.0835C119.333 33.1597 118.742 34.1331 117.526 34.2677C116.607 34.3023 115.688 34.2004 114.801 34.0995V38.0355C115.753 38.1364 116.705 38.2027 117.659 38.2027C120.844 38.2027 122.487 37.0592 123.506 34.2677L130.604 14.7001H125.774L122.061 26.6032H121.996L118.15 14.7001H113.415Z"
            fill="white" />
        <path
            d="M58.7344 8.20995C57.9467 8.17635 57.0923 8.07544 56.2713 8.07544C52.4593 8.07544 50.5869 10.2615 50.5869 13.3539V14.7001H47.7935V17.8933H50.5869V32.0835H55.2518V17.8933H58.4726V14.7001H55.2518V13.6565C55.2518 12.2113 55.7449 11.6722 57.0253 11.6722C57.585 11.6722 58.1757 11.7078 58.7344 11.775V8.20995Z"
            fill="white" />
        <path fill-rule="evenodd" clip-rule="evenodd"
            d="M107.729 8.07544V32.0835H103.292V29.8628H103.228C102.143 31.7472 100.27 32.5534 98.0687 32.5534C93.4106 32.5534 90.9233 28.8595 90.5091 24.5516H78.2891C78.4214 27.6113 79.8327 28.9556 82.4628 28.9556C84.3334 28.9556 85.8469 27.7775 86.142 26.7041H90.25C88.9336 30.84 86.142 32.5534 82.2977 32.5534C77.3312 32.5534 74.1172 29.315 73.6771 24.5516H61.6623C61.7941 27.6113 63.2063 28.9556 65.8346 28.9556C67.7066 28.9556 69.2187 27.7775 69.5134 26.7041H73.6205C72.3077 30.84 69.5134 32.5534 65.6709 32.5534C60.3131 32.5534 56.9946 28.7875 56.9946 23.4072C56.9946 18.196 60.5106 14.2293 65.6709 14.2293C70.3509 14.2293 73.0937 17.4888 73.7774 21.566C74.504 17.2898 77.7682 14.2293 82.2977 14.2293C87.2094 14.2293 89.9873 17.8184 90.4904 22.1753C90.848 17.9279 93.3591 14.2293 97.9711 14.2293C99.974 14.2293 101.946 15.1027 102.997 16.8171H103.064V8.07544H107.729ZM65.5395 17.8261C62.5153 17.8261 61.7613 20.1804 61.6623 21.5257H69.2516C68.8242 19.1031 67.8065 17.8261 65.5395 17.8261ZM78.2891 21.5257C78.3885 20.1804 79.1434 17.8261 82.1663 17.8261C84.4328 17.8261 85.4528 19.1031 85.8788 21.5257H78.2891ZM103.228 23.3409C103.228 20.5167 102.242 17.8261 99.2182 17.8261C96.1648 17.8261 95.112 20.5503 95.112 23.3745C95.112 26.0987 96.3272 28.9556 99.2182 28.9556C102.276 28.9556 103.228 26.1987 103.228 23.3409Z"
            fill="white" />
    </g>
    <defs>
        <clipPath id="clip0_13_2922">
            <rect width="130" height="38" fill="white" transform="translate(0.603516 0.202637)" />
        </clipPath>
    </defs>
</svg>
