<svg width="131" height="33" viewBox="0 0 131 33" fill="none" xmlns="http://www.w3.org/2000/svg">
    <g clip-path="url(#clip0_13_2924)">
        <path fill-rule="evenodd" clip-rule="evenodd"
            d="M40.1368 23.4241C39.6587 23.2412 39.346 22.8557 39.346 22.3416C39.346 21.7181 39.8606 21.2048 40.4862 21.2048C40.6703 21.2048 40.817 21.2411 40.9458 21.2962C41.7553 21.6632 42.6193 21.8831 43.6679 21.8831C45.5804 21.8831 46.4817 20.9662 46.4817 19.2046V18.7276C45.6535 19.7187 44.753 20.3235 43.2634 20.3235C40.9644 20.3235 38.8857 18.6541 38.8857 15.7371V15.7007C38.8857 12.7651 41.0009 11.1143 43.2634 11.1143C44.7896 11.1143 45.6906 11.7562 46.4445 12.5817V12.563C46.4445 11.8111 47.07 11.1878 47.8423 11.1878C48.6147 11.1878 49.2396 11.8111 49.2396 12.5817V18.9112C49.2396 20.6727 48.8173 21.9567 47.989 22.7821C47.07 23.6996 45.6535 24.1032 43.7416 24.1032C42.4353 24.1032 41.2951 23.8832 40.1368 23.4241ZM46.4817 15.7371V15.7007C46.4817 14.3611 45.4329 13.4256 44.0723 13.4256C42.7116 13.4256 41.6816 14.3611 41.6816 15.7007V15.7371C41.6816 17.0946 42.7116 18.0122 44.0723 18.0122C45.4329 18.0122 46.4817 17.0766 46.4817 15.7371Z"
            fill="white" />
        <path fill-rule="evenodd" clip-rule="evenodd"
            d="M40.1368 23.4239C39.6587 23.2411 39.346 22.8555 39.346 22.3413C39.346 21.718 39.8606 21.2046 40.4862 21.2046C40.6703 21.2046 40.817 21.241 40.9458 21.296C41.7553 21.6629 42.6193 21.8829 43.6679 21.8829C45.5804 21.8829 46.4817 20.966 46.4817 19.2045V18.7275C45.6535 19.7186 44.753 20.3233 43.2634 20.3233C40.9644 20.3233 38.8857 18.6539 38.8857 15.737V15.7005C38.8857 12.7649 41.0009 11.114 43.2634 11.114C44.7896 11.114 45.6906 11.756 46.4445 12.5814V12.5629C46.4445 11.8109 47.07 11.1875 47.8423 11.1875C48.6147 11.1875 49.2396 11.8109 49.2396 12.5814V18.9109C49.2396 20.6725 48.8173 21.9565 47.989 22.7819C47.07 23.6994 45.6535 24.103 43.7416 24.103C42.4353 24.103 41.2951 23.8831 40.1368 23.4239ZM46.4817 15.737V15.7005C46.4817 14.3609 45.4329 13.4254 44.0723 13.4254C42.7116 13.4254 41.6816 14.3609 41.6816 15.7005V15.737C41.6816 17.0944 42.7116 18.012 44.0723 18.012C45.4329 18.012 46.4817 17.0765 46.4817 15.737ZM50.8222 12.5814C50.8222 11.8109 51.447 11.1875 52.22 11.1875C52.9923 11.1875 53.6172 11.8109 53.6172 12.5814V13.0213C54.0224 12.068 54.6838 11.1875 55.5119 11.1875C56.3766 11.1875 56.8726 11.756 56.8726 12.5443C56.8726 13.2784 56.3945 13.7189 55.8247 13.8475C54.4083 14.178 53.6172 15.26 53.6172 17.2414V19.8464C53.6172 20.6169 52.9923 21.241 52.22 21.241C51.447 21.241 50.8222 20.6169 50.8222 19.8464V12.5814ZM56.542 18.3054V18.269C56.542 16.1226 58.1783 15.1314 60.5145 15.1314C61.5073 15.1314 62.2246 15.2964 62.9238 15.5348V15.3698C62.9238 14.2145 62.206 13.5718 60.8086 13.5718C60.0363 13.5718 59.4108 13.6825 58.8776 13.8475C58.7122 13.9024 58.6019 13.9211 58.4731 13.9211C57.8296 13.9211 57.3143 13.4254 57.3143 12.7828C57.3143 12.2879 57.6264 11.866 58.0686 11.7004C58.9512 11.3704 59.9075 11.1875 61.2131 11.1875C62.7393 11.1875 63.8429 11.5909 64.5416 12.2879C65.2773 13.0213 65.6087 14.1045 65.6087 15.4256V19.9014C65.6087 20.654 65.0018 21.241 64.2475 21.241C63.4385 21.241 62.9053 20.6725 62.9053 20.0849V20.0664C62.2246 20.819 61.2869 21.3138 59.9255 21.3138C58.0686 21.3138 56.542 20.2506 56.542 18.3054ZM62.9604 17.6635V17.1679C62.4822 16.948 61.8573 16.8009 61.1759 16.8009C59.9806 16.8009 59.2454 17.2779 59.2454 18.159V18.1954C59.2454 18.9481 59.871 19.388 60.7715 19.388C62.0778 19.388 62.9604 18.6724 62.9604 17.6635ZM67.0989 12.5814C67.0989 11.8109 67.7239 11.1875 68.497 11.1875C69.2693 11.1875 69.8948 11.8109 69.8948 12.5814V12.6922C70.5376 11.866 71.3844 11.114 72.8002 11.114C74.0872 11.114 75.0621 11.6824 75.5768 12.6735C76.4414 11.6645 77.4714 11.114 78.8135 11.114C80.8922 11.114 82.1427 12.3615 82.1427 14.7286V19.8464C82.1427 20.6169 81.517 21.241 80.7447 21.241C79.9725 21.241 79.3467 20.6169 79.3467 19.8464V15.6456C79.3467 14.3245 78.7583 13.6454 77.7105 13.6454C76.6618 13.6454 76.0183 14.3245 76.0183 15.6456V19.8464C76.0183 20.6169 75.3935 21.241 74.6205 21.241C73.8481 21.241 73.2226 20.6169 73.2226 19.8464V15.6456C73.2226 14.3245 72.6348 13.6454 71.5863 13.6454C70.5377 13.6454 69.8948 14.3245 69.8948 15.6456V19.8464C69.8948 20.6169 69.2693 21.241 68.497 21.241C67.7239 21.241 67.0989 20.6169 67.0989 19.8464V12.5814ZM83.6513 12.5814C83.6513 11.8109 84.2763 11.1875 85.0494 11.1875C85.8216 11.1875 86.4473 11.8109 86.4473 12.5814V12.6922C87.0901 11.866 87.9368 11.114 89.3526 11.114C90.6397 11.114 91.6145 11.6824 92.1292 12.6735C92.9939 11.6645 94.0239 11.114 95.3661 11.114C97.4446 11.114 98.6951 12.3615 98.6951 14.7286V19.8464C98.6951 20.6169 98.0702 21.241 97.2971 21.241C96.5249 21.241 95.8993 20.6169 95.8993 19.8464V15.6456C95.8993 14.3245 95.3109 13.6454 94.2629 13.6454C93.2143 13.6454 92.5708 14.3245 92.5708 15.6456V19.8464C92.5708 20.6169 91.946 21.241 91.1729 21.241C90.4006 21.241 89.7757 20.6169 89.7757 19.8464V15.6456C89.7757 14.3245 89.1872 13.6454 88.1387 13.6454C87.0901 13.6454 86.4473 14.3245 86.4473 15.6456V19.8464C86.4473 20.6169 85.8216 21.241 85.0494 21.241C84.2763 21.241 83.6513 20.6169 83.6513 19.8464V12.5814ZM99.6156 18.3054V18.269C99.6156 16.1226 101.252 15.1314 103.587 15.1314C104.581 15.1314 105.298 15.2964 105.997 15.5348V15.3698C105.997 14.2145 105.28 13.5718 103.882 13.5718C103.109 13.5718 102.484 13.6825 101.951 13.8475C101.786 13.9024 101.675 13.9211 101.547 13.9211C100.903 13.9211 100.388 13.4254 100.388 12.7828C100.388 12.2879 100.701 11.866 101.142 11.7004C102.025 11.3704 102.981 11.1875 104.287 11.1875C105.813 11.1875 106.916 11.5909 107.616 12.2879C108.351 13.0213 108.681 14.1045 108.681 15.4256V19.9014C108.681 20.654 108.075 21.241 107.322 21.241C106.512 21.241 105.979 20.6725 105.979 20.0849V20.0664C105.298 20.819 104.36 21.3138 103 21.3138C101.142 21.3138 99.6156 20.2506 99.6156 18.3054ZM106.034 17.6635V17.1679C105.556 16.948 104.93 16.8009 104.25 16.8009C103.054 16.8009 102.319 17.2779 102.319 18.159V18.1954C102.319 18.9481 102.944 19.388 103.845 19.388C105.151 19.388 106.034 18.6724 106.034 17.6635ZM110.172 12.5814C110.172 11.8109 110.797 11.1875 111.57 11.1875C112.343 11.1875 112.967 11.8109 112.967 12.5814V13.0213C113.372 12.068 114.035 11.1875 114.863 11.1875C115.727 11.1875 116.222 11.756 116.222 12.5443C116.222 13.2784 115.745 13.7189 115.174 13.8475C113.759 14.178 112.967 15.26 112.967 17.2414V19.8464C112.967 20.6169 112.343 21.241 111.57 21.241C110.797 21.241 110.172 20.6169 110.172 19.8464V12.5814ZM117.069 9.02187C117.069 8.25133 117.694 7.62793 118.466 7.62793C119.24 7.62793 119.864 8.25133 119.864 9.02187V19.8464C119.864 20.6169 119.24 21.241 118.466 21.241C117.694 21.241 117.069 20.6169 117.069 19.8464V9.02187ZM122.09 23.8644C121.684 23.7181 121.207 23.3874 121.207 22.7091C121.207 22.03 121.741 21.5709 122.311 21.5709C122.531 21.5709 122.661 21.608 122.77 21.6444C123.009 21.718 123.157 21.755 123.36 21.755C123.855 21.755 124.095 21.6629 124.353 21.1675L124.444 20.9475L121.079 13.1684C121.006 12.9849 120.932 12.71 120.932 12.5265C120.932 11.7375 121.538 11.1875 122.311 11.1875C123.009 11.1875 123.414 11.5725 123.653 12.2323L125.787 17.9569L127.847 12.2508C128.067 11.6645 128.471 11.1875 129.189 11.1875C129.905 11.1875 130.513 11.7375 130.513 12.4714C130.513 12.6922 130.439 13.0035 130.384 13.1321L126.945 21.3695C126.117 23.369 125.29 24.1215 123.616 24.1215C122.991 24.1215 122.55 24.0301 122.09 23.8644Z"
            fill="white" />
        <path
            d="M15.8253 0.965088C7.41885 0.965088 0.603516 7.78688 0.603516 16.2026H31.0473C31.0473 7.78688 24.2324 0.965088 15.8253 0.965088Z"
            fill="#4CA385" />
        <path
            d="M15.8253 31.4401C24.2324 31.4401 31.0473 24.6178 31.0473 16.2026H0.603516C0.603516 24.6178 7.41885 31.4401 15.8253 31.4401Z"
            fill="#4CA385" />
        <g filter="url(#filter0_d_13_2924)">
            <path fill-rule="evenodd" clip-rule="evenodd"
                d="M18.8282 18.2677C18.6765 18.2677 18.5267 18.3013 18.3893 18.3661C18.1824 18.4636 18.0137 18.6271 17.9096 18.8311C17.8056 19.0349 17.7722 19.2676 17.8145 19.4927C17.9042 19.9915 18.3728 20.3331 18.8794 20.3331H20.4741L21.3987 20.2033C19.9194 22.3759 17.3511 23.3753 14.5429 22.9342C12.2573 22.5747 10.2951 21.0271 9.46253 18.8648C7.58368 13.956 11.165 9.26934 15.8314 9.26934C18.264 9.26934 20.3962 10.6948 21.6193 12.4156V12.453C21.7734 12.6799 22.011 12.8365 22.2801 12.8885C22.5492 12.9405 22.8279 12.8836 23.0553 12.7305C23.2669 12.5839 23.4152 12.3626 23.4704 12.1111C23.5256 11.8594 23.4834 11.5963 23.3526 11.3745H23.3603C22.4963 10.0198 21.2832 8.92335 19.849 8.20059C18.4148 7.47784 16.8124 7.15554 15.2106 7.26761C10.7631 7.56756 7.16152 11.2133 6.90579 15.6702C6.60852 20.8575 10.7191 25.093 15.8314 25.093C17.1073 25.098 18.3692 24.8267 19.5305 24.2977C20.6918 23.7688 21.7251 22.9946 22.5595 22.0283L22.3655 23.1157V24.0978C22.3655 24.6037 22.7062 25.0734 23.2052 25.1632C23.3543 25.1915 23.5078 25.1864 23.6548 25.1484C23.8018 25.1104 23.9385 25.0404 24.0554 24.9435C24.1723 24.8465 24.2663 24.7249 24.3309 24.5874C24.3953 24.4498 24.4288 24.2997 24.4288 24.1479V18.2677H18.8282Z"
                fill="white" />
        </g>
    </g>
    <defs>
        <filter id="filter0_d_13_2924" x="6.3693" y="7.24585" width="18.5807" height="19.369"
            filterUnits="userSpaceOnUse" color-interpolation-filters="sRGB">
            <feFlood flood-opacity="0" result="BackgroundImageFix" />
            <feColorMatrix in="SourceAlpha" type="matrix" values="0 0 0 0 0 0 0 0 0 0 0 0 0 0 0 0 0 0 127 0"
                result="hardAlpha" />
            <feOffset dy="0.912323" />
            <feGaussianBlur stdDeviation="0.260663" />
            <feColorMatrix type="matrix" values="0 0 0 0 0 0 0 0 0 0 0 0 0 0 0 0 0 0 0.15 0" />
            <feBlend mode="normal" in2="BackgroundImageFix" result="effect1_dropShadow_13_2924" />
            <feBlend mode="normal" in="SourceGraphic" in2="effect1_dropShadow_13_2924" result="shape" />
        </filter>
        <clipPath id="clip0_13_2924">
            <rect width="130" height="32" fill="white" transform="translate(0.603516 0.202637)" />
        </clipPath>
    </defs>
</svg>
