<svg width="131" height="30" viewBox="0 0 131 30" fill="none" xmlns="http://www.w3.org/2000/svg">
    <g clip-path="url(#clip0_13_2905)">
        <path
            d="M22.8925 5.18142C17.9316 4.82637 12.4059 4.82638 7.44492 5.18142C6.40644 5.25575 5.6196 6.04807 5.54153 7.01653C5.29111 10.1224 5.2578 14.7755 5.48741 17.8782C5.56326 18.9031 6.46628 19.7828 7.68795 19.7828H11.5177V24.4901L7.69576 24.4874C4.18965 24.4874 1.04259 21.898 0.770739 18.2248C0.52325 14.8807 0.557433 9.9855 0.827228 6.63917C1.09761 3.28552 3.80408 0.717364 7.10609 0.481039C12.2926 0.109837 18.0449 0.109835 23.2314 0.481038C26.5334 0.717363 29.2399 3.28552 29.5103 6.63917C29.7801 9.9855 29.7682 14.8807 29.5208 18.2248C29.2489 21.898 26.1091 24.498 22.603 24.498L18.8206 24.4953L11.5177 29.2026V24.4901L18.8206 19.7828H22.6036C23.8252 19.7828 24.7282 18.9031 24.8041 17.8782C25.0337 14.7755 25.0463 10.1224 24.7959 7.01653C24.7178 6.04807 23.931 5.25575 22.8925 5.18142Z"
            fill="#FE5000" />
        <path d="M36.9468 20.8936H48.3761V18.0342H40.4102V3.63867H36.9468V20.8936Z" fill="black" />
        <path
            d="M50.0329 20.8936H53.3974V8.07563H50.0329V20.8936ZM49.7607 4.72323C49.7607 5.83248 50.5771 6.67058 51.7151 6.67058C52.8531 6.67058 53.6695 5.83248 53.6695 4.72323C53.6695 3.61398 52.8531 2.77588 51.7151 2.77588C50.5771 2.77588 49.7607 3.61398 49.7607 4.72323Z"
            fill="black" />
        <path
            d="M66.5893 8.07568H63.2248L60.4541 17.4673L57.6833 8.07568H54.3188L58.6976 20.8937H62.2105L66.5893 8.07568Z"
            fill="black" />
        <path
            d="M72.5932 21.1894C75.4382 21.1894 77.7389 19.4886 78.1842 17.1468H75.2403C74.9187 18.0342 74.0281 18.7737 72.5932 18.7737C70.6389 18.7737 69.872 17.4673 69.872 15.9636V15.6432H78.2832V13.4C78.2832 10.3188 76.3535 7.77979 72.5438 7.77979C68.6845 7.77979 66.6064 10.2448 66.6064 13.7205V15.4706C66.6064 19.0695 68.9566 21.1894 72.5932 21.1894ZM69.872 13.1535C69.872 11.428 70.6141 10.1462 72.5438 10.1462C74.3497 10.1462 75.1908 11.3541 75.1908 12.9563V13.2768H69.872V13.1535Z"
            fill="black" />
        <path
            d="M87.2253 21.2386C91.6041 21.2386 94.3006 18.2806 94.4738 14.7557H91.2578C91.0351 16.703 89.7982 18.4039 87.2253 18.4039C84.3309 18.4039 83.094 16.4319 83.094 13.6711V10.861C83.094 8.10021 84.3309 6.12821 87.2253 6.12821C89.7982 6.12821 91.0351 7.82906 91.2578 9.77641H94.4738C94.3006 6.25146 91.6041 3.29346 87.2253 3.29346C82.0055 3.29346 79.6553 6.62121 79.6553 11.0335V13.4985C79.6553 17.9109 82.0055 21.2386 87.2253 21.2386Z"
            fill="black" />
        <path
            d="M96.3027 20.894H99.6674V13.3018C99.6674 11.5763 100.632 10.6889 102.141 10.6889C103.774 10.6889 104.491 11.7488 104.491 13.2278V20.894H107.855V12.6855C107.855 9.65351 106.099 7.78011 103.304 7.78011C101.647 7.78011 100.335 8.49496 99.6674 9.60421V2.89941H96.3027V20.894Z"
            fill="black" />
        <path
            d="M114.278 21.1894C115.763 21.1894 117.395 20.5732 117.989 19.7104V20.8936H121.229V12.7098C121.229 9.72714 119.028 7.77979 115.812 7.77979C113.041 7.77979 111.037 9.11089 110.295 11.6006H113.412C113.758 10.9104 114.476 10.3927 115.638 10.3927C117.024 10.3927 117.865 11.2801 117.865 12.4633V14.2135C117.271 13.7205 116.133 13.1289 114.599 13.1289C111.508 13.1289 109.404 14.4107 109.404 17.1961C109.404 19.6858 111.383 21.1894 114.278 21.1894ZM115.144 18.9709C113.734 18.9709 112.67 18.2807 112.67 17.0975C112.67 15.9143 113.659 15.2734 115.243 15.2734C116.752 15.2734 117.865 15.939 117.865 17.0729C117.865 18.1575 116.628 18.9709 115.144 18.9709Z"
            fill="black" />
        <path
            d="M127.516 20.8935H129.842V18.182H128.48C127.59 18.182 127.269 17.8369 127.269 16.9988V10.787H130.014V8.07549H127.269V4.5752H123.879V8.07549H122.048V10.787H123.879V17.2453C123.879 19.5131 125.042 20.8935 127.516 20.8935Z"
            fill="black" />
    </g>
    <defs>
        <clipPath id="clip0_13_2905">
            <rect width="130" height="29" fill="white" transform="translate(0.603516 0.202637)" />
        </clipPath>
    </defs>
</svg>
