<svg width="131" height="33" viewBox="0 0 131 33" fill="none" xmlns="http://www.w3.org/2000/svg">
    <g clip-path="url(#clip0_13_2913)">
        <path
            d="M27.889 0.202637H6.27444C3.27806 0.202637 0.849609 2.59372 0.849609 5.544V26.8259C0.849609 29.7762 3.27806 32.1673 6.27444 32.1673H27.889C30.8853 32.1673 33.3136 29.7762 33.3136 26.8259V5.544C33.3136 2.59372 30.8853 0.202637 27.889 0.202637ZM27.4124 24.6694C27.4124 25.6015 26.6452 26.3567 25.6987 26.3567H8.4646C7.51804 26.3567 6.75099 25.6015 6.75099 24.6694V7.70048C6.75099 6.76847 7.51804 6.01323 8.4646 6.01323H25.6987C26.6452 6.01323 27.4124 6.76847 27.4124 7.70048V24.6694ZM13.6381 20.5237C13.093 20.5237 12.6556 20.0898 12.6556 19.553V12.7783C12.6556 12.2416 13.093 11.8045 13.6381 11.8045H20.5284C21.0703 11.8045 21.511 12.2384 21.511 12.7783V19.5498C21.511 20.0866 21.0703 20.5205 20.5284 20.5205H13.6381V20.5237ZM41.921 20.0608H45.4657C45.6419 22.0373 47.0031 23.5799 49.7482 23.5799C52.1994 23.5799 53.7074 22.3877 53.7074 20.5847C53.7074 18.8975 52.5259 18.1421 50.3977 17.6473L47.6494 17.0656C44.666 16.4261 42.4203 14.5363 42.4203 11.451C42.4203 8.04757 45.4918 5.72076 49.4805 5.72076C53.7041 5.72076 56.4231 7.90294 56.6581 11.1296H53.2308C52.8228 9.61913 51.5498 8.71926 49.4837 8.71926C47.2968 8.71926 45.7922 9.88267 45.7922 11.3675C45.7922 12.8522 47.0911 13.7521 49.3369 14.247L52.0558 14.8287C55.0392 15.4682 57.0759 17.2423 57.0759 20.3533C57.0759 24.3095 54.0631 26.6652 49.7514 26.6652C44.9043 26.662 42.2181 24.0749 41.921 20.0608ZM69.7566 32.1673V26.3792L69.9884 23.8403H69.7566C68.944 25.6658 67.2368 26.6652 64.9193 26.6652C61.1821 26.6652 58.4011 23.67 58.4011 19.0774C58.4011 14.4848 61.1821 11.4896 64.9193 11.4896C67.2075 11.4896 68.8297 12.5437 69.7566 14.1988H69.9884V11.7724H73.0598V32.1673H69.7566ZM69.871 19.0742C69.871 16.1367 68.0462 14.4238 65.8136 14.4238C63.581 14.4238 61.7565 16.1367 61.7565 19.0742C61.7565 22.0117 63.581 23.7245 65.8136 23.7245C68.0462 23.7245 69.871 22.0149 69.871 19.0742ZM75.5112 20.5879V11.7724H78.8144V20.3018C78.8144 22.6125 79.9438 23.7245 81.8271 23.7245C84.1445 23.7245 85.6525 22.0983 85.6525 19.5594V11.7724H88.9557V26.376H85.8843V23.3517H85.6525C84.9279 25.293 83.335 26.662 80.874 26.662C77.3358 26.662 75.5112 24.438 75.5112 20.5879ZM90.9664 22.2976C90.9664 19.5594 92.9085 17.9622 96.3552 17.7629L100.439 17.5059V16.365C100.439 14.9958 99.4235 14.1699 97.6282 14.1699C95.9766 14.1699 94.991 14.9958 94.7298 16.1657H91.4266C91.7758 13.1993 94.2664 11.4864 97.6249 11.4864C101.421 11.4864 103.738 13.0836 103.738 16.1657V26.376H100.667V23.6668H100.435C99.7401 25.4633 98.2909 26.662 95.5099 26.662C92.8497 26.662 90.9664 24.8944 90.9664 22.2976ZM100.442 20.5011V19.7298L97.1092 19.958C95.314 20.0704 94.5013 20.7293 94.5013 22.0406C94.5013 23.1525 95.4282 23.9527 96.7306 23.9527C99.0808 23.9527 100.442 22.4711 100.442 20.5011ZM106.203 26.3792V11.7724H109.274V14.5684H109.506C109.94 12.6562 111.419 11.7724 113.619 11.7724H115.127V14.7098H113.243C111.099 14.7098 109.506 16.0789 109.506 18.6757V26.376H106.203V26.3792ZM130.239 19.6752H118.969C119.142 22.3555 121.054 23.8693 123.169 23.8693C124.965 23.8693 126.094 23.1558 126.734 21.957H130.008C129.11 24.9234 126.473 26.662 123.14 26.662C118.766 26.662 115.695 23.4386 115.695 19.0742C115.695 14.7098 118.851 11.4864 123.169 11.4864C127.514 11.4864 130.353 14.4238 130.353 18.0746C130.357 18.7914 130.298 19.1609 130.239 19.6752ZM127.083 17.4223C126.969 15.3975 125.258 14.0285 123.173 14.0285C121.201 14.0285 119.553 15.2562 119.145 17.4223H127.083Z"
            fill="white" />
    </g>
    <defs>
        <clipPath id="clip0_13_2913">
            <rect width="130" height="32" fill="white" transform="translate(0.603516 0.202637)" />
        </clipPath>
    </defs>
</svg>
