<svg width="131" height="31" viewBox="0 0 131 31" fill="none" xmlns="http://www.w3.org/2000/svg">
    <g clip-path="url(#clip0_13_2915)">
        <path fill-rule="evenodd" clip-rule="evenodd"
            d="M101.752 20.8904C105.102 20.8904 107.828 18.2275 107.828 14.9545C107.828 11.6814 105.102 9.01856 101.752 9.01856C98.4019 9.01856 95.6761 11.6814 95.6761 14.9545C95.6761 18.2275 98.4019 20.8904 101.752 20.8904ZM107.828 0.202637H107.992H110.706V23.7226H107.828V21.3742C106.166 22.8785 104.024 23.7025 101.752 23.7025C96.8148 23.7025 92.7981 19.7781 92.7981 14.9545C92.7981 10.1306 96.8148 6.20636 101.752 6.20636C104.024 6.20636 106.166 7.03028 107.828 8.53466V0.202637ZM42.0582 20.7868C45.4083 20.7868 48.1338 18.124 48.1338 14.8509C48.1338 11.5779 45.4083 8.91506 42.0582 8.91506C38.7079 8.91506 35.9824 11.5779 35.9824 14.8509C35.9824 18.124 38.7079 20.7868 42.0582 20.7868ZM35.9824 8.43134C37.6436 6.92696 39.7861 6.10291 42.0582 6.10291C46.9953 6.10291 51.0122 10.0273 51.0122 14.8509C51.0122 19.6746 46.9953 23.5989 42.0582 23.5989C39.7861 23.5989 37.6436 22.7751 35.9824 21.2705V29.6026H33.104V6.08264H35.9824V8.43134ZM56.5042 13.485C57.152 10.8268 59.5658 8.91806 62.3191 8.91806C65.0365 8.91806 67.3127 10.786 67.9193 13.485H56.5042ZM62.3191 6.08264C57.4558 6.08264 53.4994 10.0395 53.4994 14.9026C53.4994 19.766 57.4558 23.7226 62.3191 23.7226C65.0425 23.7226 67.542 22.703 69.1778 20.9252L70.0276 20.0011L70.1372 19.8819L70.018 19.7719L68.1703 18.0723L68.0511 17.9624L67.941 18.0817L67.0912 19.0059C66.0072 20.184 64.2234 20.8874 62.3191 20.8874C59.5658 20.8874 57.1521 18.9787 56.5042 16.3203H70.9099V14.9026C70.9099 9.95684 67.1363 6.08264 62.3191 6.08264ZM127.725 14.9027C127.725 18.2026 125 20.8873 121.65 20.8873C118.3 20.8873 115.574 18.2026 115.574 14.9027C115.574 11.6026 118.3 8.91794 121.65 8.91794C125 8.91794 127.725 11.6026 127.725 14.9027ZM121.65 6.08264C116.713 6.08264 112.696 10.0393 112.696 14.9027C112.696 19.766 116.713 23.7226 121.65 23.7226C126.587 23.7226 130.604 19.766 130.604 14.9027C130.604 10.0393 126.587 6.08264 121.65 6.08264ZM81.6048 6.08264C79.6049 6.08264 77.6994 6.84194 76.1996 8.22872V6.08264H73.3974V23.7226H76.1996V14.7207C76.1996 11.509 78.6245 8.89592 81.6048 8.89592C84.5858 8.89592 87.0113 11.509 87.0113 14.7207V23.7226H89.8129V14.7207C89.8129 9.95768 86.1308 6.08264 81.6048 6.08264Z"
            fill="white" />
        <path fill-rule="evenodd" clip-rule="evenodd"
            d="M0.603516 17.0027H14.1451V30.2027L27.6868 17.0027V3.80273H14.1451L0.603516 17.0027Z" fill="#FF4876" />
    </g>
    <defs>
        <clipPath id="clip0_13_2915">
            <rect width="130" height="30" fill="white" transform="translate(0.603516 0.202637)" />
        </clipPath>
    </defs>
</svg>
