<svg id="Icon" height="300" viewBox="0 0 64 64" width="300" xmlns="http://www.w3.org/2000/svg" version="1.1" xmlns:xlink="http://www.w3.org/1999/xlink" xmlns:svgjs="http://svgjs.dev/svgjs"><g width="100%" height="100%" transform="matrix(1,0,0,1,0,0)"><path d="m53 50.057v-9.832c5.254-2.019 9-7.104 9-13.061 0-7.72-6.28-14-14-14-.741 0-1.499.065-2.263.194-1.258-6.528-6.982-11.325-13.737-11.325s-12.479 4.797-13.738 11.325c-.763-.129-1.521-.194-2.262-.194-7.72 0-14 6.28-14 14 0 5.957 3.746 11.042 9 13.061v9.832c-2.833.478-5 2.942-5 5.91 0 3.309 2.691 6 6 6s6-2.691 6-6c0-2.967-2.167-5.431-5-5.91v-9.225c.968.212 1.97.332 3 .332h15v8.893c-2.833.478-5 2.942-5 5.91 0 3.309 2.691 6 6 6s6-2.691 6-6c0-2.967-2.167-5.431-5-5.91v-8.893h15c1.03 0 2.032-.12 3-.332v9.225c-2.833.478-5 2.942-5 5.91 0 3.309 2.691 6 6 6s6-2.691 6-6c0-2.967-2.167-5.431-5-5.91zm-37 5.91c0 2.206-1.794 4-4 4s-4-1.794-4-4 1.794-4 4-4 4 1.794 4 4zm20 0c0 2.206-1.794 4-4 4s-4-1.794-4-4 1.794-4 4-4 4 1.794 4 4zm-20-16.803c-6.617 0-12-5.383-12-12s5.383-12 12-12c.926 0 1.886.12 2.853.356.278.068.574.014.81-.151.236-.164.389-.422.422-.707.689-6.06 5.812-10.629 11.916-10.629s11.227 4.569 11.916 10.629c.032.285.186.543.421.707.236.165.531.221.81.151.968-.236 1.928-.356 2.854-.356 6.617 0 12 5.383 12 12s-5.383 12-12 12zm36 20.803c-2.206 0-4-1.794-4-4s1.794-4 4-4 4 1.794 4 4-1.794 4-4 4z" fill="#000000" fill-opacity="1" data-original-color="#000000ff" stroke="none" stroke-opacity="1"/><g><path d="m32.707 14.787c-.391-.391-1.023-.391-1.414 0l-1.726 1.725c-.391.39-.391 1.023 0 1.414.397.398 1.046.389 1.433-.019v7.796c0 .552.448 1 1 1s1-.448 1-1v-7.796c.195.205.462.312.726.312.256 0 .512-.098.707-.293.391-.391.391-1.024 0-1.414z" fill="#000000" fill-opacity="1" data-original-color="#000000ff" stroke="none" stroke-opacity="1"/><path d="m26.707 20.787c-.391-.391-1.023-.391-1.414 0l-1.726 1.725c-.391.39-.391 1.023 0 1.414.397.398 1.046.389 1.433-.019v3.796c0 .552.448 1 1 1s1-.448 1-1v-3.796c.195.205.462.312.726.312.256 0 .512-.098.707-.293.391-.391.391-1.024 0-1.414z" fill="#000000" fill-opacity="1" data-original-color="#000000ff" stroke="none" stroke-opacity="1"/><path d="m38.707 20.787c-.391-.391-1.023-.391-1.414 0l-1.726 1.725c-.391.39-.391 1.023 0 1.414.397.398 1.046.389 1.433-.019v3.796c0 .552.447 1 1 1s1-.448 1-1v-3.796c.195.205.462.312.726.312.256 0 .512-.098.707-.293.391-.391.391-1.024 0-1.414z" fill="#000000" fill-opacity="1" data-original-color="#000000ff" stroke="none" stroke-opacity="1"/></g></g></svg>