<svg version="1.1" id="Capa_1" xmlns="http://www.w3.org/2000/svg" xmlns:xlink="http://www.w3.org/1999/xlink" x="0px" y="0px" viewBox="0 0 512.009 512.009" style="enable-background:new 0 0 512.009 512.009;" xml:space="preserve" width="300" height="300" xmlns:svgjs="http://svgjs.dev/svgjs"><g width="100%" height="100%" transform="matrix(1,0,0,1,0,0)"><g>
	<g>
		<g>
			<path d="M500.775,174.184l-22.9-8.334V76.8c-0.015-14.132-11.468-25.585-25.6-25.6H175.329l-5.296-30.033&#10;&#9;&#9;&#9;&#9;c-2.454-13.926-15.732-23.226-29.658-20.775l-16.8,2.958c-13.929,2.456-23.23,15.738-20.775,29.667l3.206,18.183H85.341v-8.533&#10;&#9;&#9;&#9;&#9;C85.341,19.103,66.239,0,42.675,0S0.008,19.103,0.008,42.667v426.667C0.036,492.886,19.122,511.973,42.675,512h341.273&#10;&#9;&#9;&#9;&#9;l0.094,0.009l0.075-0.009h68.158c14.132-0.015,25.585-11.468,25.6-25.6V287.008l33.108-90.957&#10;&#9;&#9;&#9;&#9;C514.174,187.194,509.613,177.424,500.775,174.184z M42.675,494.934c-14.132-0.015-25.585-11.468-25.6-25.6&#10;&#9;&#9;&#9;&#9;c0-14.138,11.462-25.6,25.6-25.6s25.6,11.462,25.6,25.6S56.813,494.934,42.675,494.934z M68.275,435.419&#10;&#9;&#9;&#9;&#9;c-15.072-11.669-36.128-11.669-51.2,0V42.667c0.015-14.132,11.468-25.585,25.6-25.6c14.132,0.015,25.585,11.468,25.6,25.6&#10;&#9;&#9;&#9;&#9;V435.419z M188.791,225.809l-33.617,5.933L127.015,72.061l33.618-5.929L188.791,225.809z M187.412,243.382l-7.337,31.286&#10;&#9;&#9;&#9;&#9;l-17.598-26.889L187.412,243.382z M121.025,23.675c1.291-1.862,3.275-3.129,5.508-3.517l16.808-2.967&#10;&#9;&#9;&#9;&#9;c0.493-0.083,0.992-0.125,1.492-0.125c4.138,0.01,7.673,2.984,8.392,7.058l4.445,25.206l-33.618,5.929l-4.444-25.202&#10;&#9;&#9;&#9;&#9;C119.202,27.827,119.713,25.526,121.025,23.675z M76.589,494.934c5.645-7.343,8.72-16.338,8.752-25.6V68.267h23.675&#10;&#9;&#9;&#9;&#9;l30.833,174.842c0.032,0.183,0.15,0.348,0.194,0.53c0.198,0.876,0.534,1.716,0.995,2.487c0.034,0.055,0.034,0.12,0.07,0.174&#10;&#9;&#9;&#9;&#9;l35.583,54.375c1.577,2.409,4.263,3.86,7.142,3.858c0.497,0.001,0.994-0.044,1.483-0.133c3.36-0.592,6.044-3.129,6.825-6.45&#10;&#9;&#9;&#9;&#9;l14.842-63.266l0.002-0.049c0.105-0.682,0.126-1.374,0.062-2.061c0.042-0.437,0.051-0.876,0.027-1.314v-0.009L178.337,68.267&#10;&#9;&#9;&#9;&#9;h273.938c4.712,0.003,8.53,3.822,8.533,8.533v82.837l-0.125-0.045c-45.725-16.644-96.252-13.978-139.971,7.385&#10;&#9;&#9;&#9;&#9;c-43.719,21.364-76.871,59.588-91.837,105.89c-28.642,88.336,18.95,186.251,106.322,222.067H76.589z M460.808,486.4&#10;&#9;&#9;&#9;&#9;c-0.003,4.711-3.822,8.53-8.533,8.533h-50.085l58.619-161.04V486.4z M489.105,206.261l-0.005-0.002&#10;&#9;&#9;&#9;&#9;c-2.865-1.045-6.069-0.481-8.405,1.479c-2.336,1.96-3.449,5.017-2.918,8.02c0.531,3.003,2.624,5.494,5.49,6.534l0.003,0.001&#10;&#9;&#9;&#9;&#9;l-5.84,16.043l-0.005-0.002c-2.865-1.045-6.069-0.481-8.405,1.479c-2.336,1.96-3.449,5.017-2.918,8.02s2.624,5.494,5.49,6.534&#10;&#9;&#9;&#9;&#9;l0.003,0.001l-4.66,12.805l-1.184-0.431c-2.865-1.045-6.069-0.481-8.405,1.479c-2.336,1.96-3.449,5.017-2.918,8.02&#10;&#9;&#9;&#9;&#9;c0.531,3.003,2.624,5.494,5.49,6.534l1.181,0.43l-5.839,16.042l-1.184-0.431c-4.426-1.607-9.317,0.677-10.927,5.102&#10;&#9;&#9;&#9;&#9;c-1.61,4.425,0.67,9.318,5.094,10.931l1.182,0.43l-5.839,16.043l-1.185-0.431c-2.865-1.045-6.069-0.481-8.405,1.479&#10;&#9;&#9;&#9;&#9;s-3.449,5.017-2.918,8.02c0.531,3.003,2.624,5.494,5.49,6.534l1.183,0.43l-5.84,16.043l-1.185-0.431&#10;&#9;&#9;&#9;&#9;c-4.426-1.607-9.317,0.677-10.927,5.102c-1.61,4.425,0.67,9.318,5.094,10.931l1.183,0.43l-5.84,16.041l-1.177-0.429&#10;&#9;&#9;&#9;&#9;c-4.426-1.607-9.317,0.677-10.927,5.102c-1.61,4.425,0.67,9.318,5.094,10.931l1.175,0.428l-5.839,16.043l-1.178-0.429&#10;&#9;&#9;&#9;&#9;c-2.865-1.045-6.069-0.481-8.405,1.479c-2.336,1.96-3.449,5.017-2.918,8.02c0.531,3.003,2.624,5.494,5.49,6.534l1.176,0.428&#10;&#9;&#9;&#9;&#9;l-5.84,16.043l-1.178-0.429c-2.865-1.045-6.069-0.481-8.405,1.479c-2.336,1.96-3.449,5.017-2.918,8.02s2.624,5.494,5.49,6.534&#10;&#9;&#9;&#9;&#9;l1.176,0.428l-7.018,19.28l-36.25-13.192c-83.2-30.283-129.258-121.625-102.675-203.608&#10;&#9;&#9;&#9;&#9;c13.452-41.957,43.435-76.613,83.021-95.961c39.586-19.347,85.351-21.712,126.72-6.548l40.091,14.6L489.105,206.261z" fill="#000000" fill-opacity="1" data-original-color="#000000ff" stroke="none" stroke-opacity="1"/>
			<path d="M443.166,207.7L443.166,207.7c-66.428-24.176-139.878,10.076-164.054,76.504s10.076,139.878,76.504,164.054&#10;&#9;&#9;&#9;&#9;c2.126,0.776,4.473,0.675,6.525-0.282c2.051-0.957,3.637-2.69,4.409-4.818l81.717-224.525c0.776-2.126,0.674-4.473-0.283-6.524&#10;&#9;&#9;&#9;&#9;C447.027,210.059,445.294,208.472,443.166,207.7z M353.541,429c-52.836-23.918-78.331-84.498-58.495-138.999&#10;&#9;&#9;&#9;&#9;c19.835-54.5,78.304-84.523,134.154-68.885L353.541,429z" fill="#000000" fill-opacity="1" data-original-color="#000000ff" stroke="none" stroke-opacity="1"/>
		</g>
	</g>
</g><g>
</g><g>
</g><g>
</g><g>
</g><g>
</g><g>
</g><g>
</g><g>
</g><g>
</g><g>
</g><g>
</g><g>
</g><g>
</g><g>
</g><g>
</g></g></svg>