<svg id="Layer_1" enable-background="new 0 0 50 50" height="300" viewBox="0 0 50 50" width="300" xmlns="http://www.w3.org/2000/svg" version="1.1" xmlns:xlink="http://www.w3.org/1999/xlink" xmlns:svgjs="http://svgjs.dev/svgjs"><g width="100%" height="100%" transform="matrix(1,0,0,1,0,0)"><g><path d="m48 38.2h-29.4l-1.1-4.1h24.1c.4 0 .8-.3.9-.6l6.5-16.3c.1-.3.1-.7-.1-.9-.2-.3-.5-.4-.8-.4h-4.5c-.6-7.2-6.5-12.8-13.7-12.8s0 0-.1 0c-7 0-13.1 5.4-13.6 12.8h-3.7l-3.4-12.5c-.1-.5-.5-.8-1-.8h-6.1c-.6 0-1 .4-1 1s.4 1 1 1h5.4l9.5 34.8c.1.4.5.7 1 .7h2c-.5.7-.8 1.6-.8 2.6 0 2.5 2.1 4.6 4.6 4.6s4.6-2.1 4.6-4.6c0-1-.3-1.8-.8-2.6h10.9c-.5.7-.8 1.6-.8 2.6 0 2.5 2.1 4.6 4.6 4.6s4.6-2.1 4.6-4.6c0-1-.3-1.8-.8-2.6h2c.6 0 1-.4 1-1s-.5-.9-1-.9zm-6.5-22.4h-4.2c0-1-.1-2.1-.3-3h3.8c.4.9.6 2 .7 3zm-4.5 5c.2-1 .3-2 .3-3h4.2c-.1 1.1-.3 2.1-.7 3zm2.9 2c-1.2 2.1-3.1 3.7-5.3 4.7.9-1.3 1.6-2.9 2-4.7zm0-12h-3.3c-.5-1.9-1.2-3.5-2-4.7 2.2.9 4.1 2.6 5.3 4.7zm-9-5.5c1.5.6 2.9 2.6 3.7 5.5h-3.7zm0 7.5h4.1c.2.9.3 1.9.3 3h-4.5v-3zm0 5h4.5c0 1.1-.2 2.1-.3 3h-4.1v-3zm0 5h3.7c-.8 2.9-2.2 4.9-3.7 5.5zm-2-17.5v5.5h-3.7c.8-2.9 2.2-4.9 3.7-5.5zm-4.2 15.5c-.2-.9-.3-2-.3-3h4.5v3zm4.2 2v5.5c-1.5-.6-2.9-2.6-3.7-5.5zm-5.8 0c.5 1.9 1.2 3.5 2 4.7-2.2-1-4.1-2.7-5.3-4.7zm-4.2-2c-.3-1-.6-2-.7-3h4.2c0 1 .1 2.1.3 3zm5.5-5c0-1.1.2-2.1.3-3h4.1v3zm.7-9.8c-.9 1.3-1.6 2.9-2 4.7h-3.3c1.2-2 3.1-3.7 5.3-4.7zm-6.2 6.8h3.8c-.2 1-.2 2-.3 3h-4.2c.1-1 .3-2.1.7-3zm-2 19.3-3.9-14.3h3.2c.5 7.3 6.6 12.7 13.6 12.8h.1c7 0 13.1-5.5 13.6-12.8h3l-5.7 14.3zm6.7 13.3c-1.4 0-2.6-1.2-2.6-2.6s1.2-2.6 2.6-2.6 2.6 1.2 2.6 2.6-1.2 2.6-2.6 2.6zm18.4 0c-1.4 0-2.6-1.2-2.6-2.6s1.2-2.6 2.6-2.6 2.6 1.2 2.6 2.6-1.1 2.6-2.6 2.6z" fill="#000000" fill-opacity="1" data-original-color="#000000ff" stroke="none" stroke-opacity="1"/></g></g></svg>