<svg id="Layer_1" enable-background="new 0 0 48 48" viewBox="0 0 48 48" xmlns="http://www.w3.org/2000/svg" width="300" height="300" version="1.1" xmlns:xlink="http://www.w3.org/1999/xlink" xmlns:svgjs="http://svgjs.dev/svgjs"><g width="100%" height="100%" transform="matrix(1,0,0,1,0,0)"><g><path d="m42.9 10.1c-4.5-6-11.2-9.5-18.6-9.6-.1 0-.2 0-.3 0s-.2 0-.3 0c-7.4.1-14.2 3.5-18.6 9.5 0 0 0 .1-.1.1-3 4-4.5 8.8-4.6 13.8v.1.1c0 5 1.6 9.8 4.6 13.8s0 .1.1.1c4.4 6 11.5 9.5 18.9 9.5s14.4-3.5 18.8-9.5c3-4.1 4.6-8.9 4.6-14 .1-5-1.5-9.9-4.5-13.9zm-1.8 25.2c-1.5-.5-3-1-4.6-1.3.7-2.6 1.1-5.4 1.2-8.5h6.8c-.3 3.5-1.5 6.9-3.4 9.8zm-34.2 0c-2-2.9-3.1-6.3-3.4-9.8h6.7c.1 3 .5 5.9 1.2 8.5-1.4.3-3 .8-4.5 1.3zm0-22.6c1.5.5 3 1 4.6 1.3-.7 2.6-1.1 5.4-1.2 8.5h-6.7c.2-3.5 1.4-6.9 3.3-9.8zm18.6 2.7c2.7-.1 5.4-.3 8-.8.7 2.4 1.1 5.1 1.2 7.8h-9.2zm0-3v-8.7c2.8.8 5.3 3.8 7 8-2.3.4-4.6.7-7 .7zm-3-8.7v8.7c-2.4-.1-4.7-.3-7-.7 1.7-4.2 4.2-7.2 7-8zm0 11.7v7.1h-9.2c.1-2.8.5-5.5 1.2-7.9 2.6.5 5.3.8 8 .8zm-9.2 10.1h9.2v7.1c-2.7.1-5.4.3-8 .8-.7-2.4-1.1-5.1-1.2-7.9zm9.2 10.1v8.7c-2.8-.8-5.3-3.8-7-8 2.3-.4 4.6-.7 7-.7zm3 8.7v-8.7c2.4.1 4.7.3 7 .7-1.7 4.2-4.2 7.2-7 8zm0-11.7v-7.1h9.2c-.1 2.8-.5 5.5-1.2 7.8-2.6-.4-5.3-.7-8-.7zm12.2-10.1c-.1-3-.5-5.9-1.2-8.5 1.6-.4 3.1-.8 4.6-1.3 2 2.9 3.1 6.3 3.4 9.8zm1.4-12.3c-1.2.4-2.4.7-3.6 1-.8-2.3-1.9-4.3-3.2-5.9 2.6 1.1 4.9 2.8 6.8 4.9zm-23.5-4.9c-1.2 1.6-2.3 3.6-3.2 5.9-1.2-.3-2.4-.6-3.6-1 2-2.1 4.3-3.8 6.8-4.9zm-6.7 32.5c1.2-.4 2.4-.7 3.6-1 .8 2.3 1.9 4.3 3.2 5.9-2.6-1.1-4.9-2.8-6.8-4.9zm23.5 4.9c1.2-1.6 2.3-3.6 3.2-5.9 1.2.3 2.4.6 3.6 1-2 2.1-4.3 3.8-6.8 4.9z" fill="#000000" fill-opacity="1" data-original-color="#000000ff" stroke="none" stroke-opacity="1"/></g></g></svg>