<svg width="17" height="16" viewBox="0 0 17 16" fill="none" xmlns="http://www.w3.org/2000/svg">
    <path fill-rule="evenodd" clip-rule="evenodd"
        d="M8.72314 0C4.30666 0 0.723145 3.58351 0.723145 8C0.723145 12.4165 4.30666 16 8.72314 16C13.1309 16 16.7231 12.4165 16.7231 8C16.7231 3.58351 13.1309 0 8.72314 0ZM14.0073 3.68763C14.9617 4.85032 15.5344 6.33405 15.5518 7.93925C15.3262 7.8959 13.0702 7.436 10.7969 7.72235C10.7448 7.60955 10.7014 7.48805 10.6494 7.3666C10.5105 7.0369 10.3544 6.6985 10.1982 6.37745C12.7144 5.3536 13.8598 3.87852 14.0073 3.68763ZM8.72314 1.18004C10.4585 1.18004 12.0463 1.8308 13.2524 2.89805C13.1309 3.07158 12.0984 4.45119 9.66889 5.36225C8.54959 3.30585 7.30884 1.62256 7.11794 1.36225C7.62984 1.24078 8.16784 1.18004 8.72314 1.18004ZM5.81644 1.82212C5.99864 2.06507 7.21339 3.75705 8.35004 5.77005C5.15698 6.6204 2.33703 6.60305 2.03334 6.60305C2.47585 4.4859 3.90752 2.72451 5.81644 1.82212ZM1.88583 8.0087C1.88583 7.93925 1.88583 7.86985 1.88583 7.80045C2.18084 7.8091 5.49538 7.8525 8.90534 6.82865C9.10494 7.2104 9.28714 7.60085 9.46069 7.9913C9.37389 8.01735 9.27844 8.0434 9.19169 8.0694C5.66891 9.20605 3.79473 12.3123 3.63854 12.5726C2.55394 11.3666 1.88583 9.7614 1.88583 8.0087ZM8.72314 14.8373C7.14394 14.8373 5.68627 14.2993 4.53225 13.3969C4.65373 13.1453 6.04199 10.4729 9.89449 9.128C9.91184 9.1193 9.92054 9.1193 9.93789 9.11065C10.901 11.6008 11.2915 13.6919 11.3956 14.2906C10.5713 14.6464 9.66889 14.8373 8.72314 14.8373ZM12.5322 13.6659C12.4628 13.2494 12.0984 11.2538 11.2047 8.79825C13.3479 8.45985 15.222 9.0152 15.4563 9.0933C15.1613 10.9935 14.068 12.6334 12.5322 13.6659Z"
        fill="white" />
</svg>
