<svg width="19" height="19" viewBox="0 0 19 19" fill="none" xmlns="http://www.w3.org/2000/svg">
    <path
        d="M0.292893 17.2634C-0.0976311 17.6539 -0.0976311 18.287 0.292893 18.6776C0.683418 19.0681 1.31658 19.0681 1.70711 18.6776L1 17.9705L0.292893 17.2634ZM18.9706 0.999897C18.9706 0.447612 18.5228 -0.000103457 17.9706 -0.000103457H8.97056C8.41828 -0.000103457 7.97056 0.447612 7.97056 0.999897C7.97056 1.55218 8.41828 1.9999 8.97056 1.9999H16.9706V9.9999C16.9706 10.5522 17.4183 10.9999 17.9706 10.9999C18.5228 10.9999 18.9706 10.5522 18.9706 9.9999V0.999897ZM1 17.9705L1.70711 18.6776L18.6777 1.707L17.9706 0.999897L17.2635 0.29279L0.292893 17.2634L1 17.9705Z"
        fill="#151515" />
</svg>
