<svg width="17" height="16" viewBox="0 0 17 16" fill="none" xmlns="http://www.w3.org/2000/svg">
    <g clip-path="url(#clip0_13_2495)">
        <path
            d="M5.71361 14.5C11.7499 14.5 15.0524 9.4978 15.0524 5.16124C15.0524 5.02062 15.0492 4.87686 15.043 4.73624C15.6854 4.27164 16.2398 3.69617 16.6802 3.03687C16.0819 3.30307 15.4466 3.47692 14.7961 3.55249C15.481 3.14194 15.9939 2.49698 16.2395 1.73718C15.5952 2.11904 14.8906 2.38841 14.1558 2.53374C13.6607 2.00771 13.0062 1.65941 12.2933 1.5427C11.5804 1.42599 10.849 1.54737 10.212 1.88806C9.57504 2.22876 9.06804 2.7698 8.76941 3.42754C8.47077 4.08528 8.39713 4.82308 8.55986 5.52687C7.25517 5.46139 5.9788 5.12247 4.8135 4.53207C3.64819 3.94166 2.61997 3.11296 1.79549 2.09968C1.37644 2.82216 1.24821 3.6771 1.43686 4.49073C1.62551 5.30436 2.11688 6.01563 2.81111 6.47999C2.28993 6.46344 1.78016 6.32312 1.32393 6.07061V6.11124C1.32346 6.86943 1.58557 7.60439 2.06572 8.19118C2.54586 8.77797 3.21439 9.18037 3.95768 9.32999C3.47488 9.46208 2.96816 9.48133 2.47674 9.38624C2.68648 10.0383 3.09456 10.6086 3.64402 11.0176C4.19349 11.4265 4.85692 11.6537 5.54174 11.6675C4.37913 12.5807 2.94296 13.0761 1.46455 13.0737C1.20237 13.0733 0.940442 13.0573 0.680176 13.0256C2.18208 13.9892 3.9292 14.5009 5.71361 14.5Z"
            fill="white" />
    </g>
    <defs>
        <clipPath id="clip0_13_2495">
            <rect width="16" height="16" fill="white" transform="translate(0.680664)" />
        </clipPath>
    </defs>
</svg>
