<svg width="120" height="30" viewBox="0 0 120 30" fill="none" xmlns="http://www.w3.org/2000/svg">
    <path
        d="M4.50636 28.6414L3.65536 14.7277L3.32209 11.8973L5.41053 14.6203L16.0585 27.9348L18.5477 27.7826L17.24 6.40147L14.4636 6.57127L15.299 20.2296L15.6576 23.4749L13.2527 20.2907L2.87952 7.27979L0.422288 7.43008L1.73001 28.8112L4.50636 28.6414ZM26.5612 27.6127C29.7524 27.4176 31.2713 25.0184 31.6569 22.9448L31.7233 24.0298C31.856 26.1998 33.0517 26.8954 34.6473 26.7979L36.4344 26.6886L36.2802 24.1675L35.2909 24.228C34.7165 24.2631 34.4156 24.0573 34.3707 23.3233L33.9823 16.9728C33.7579 13.303 31.5769 11.1621 27.7794 11.3944C24.3329 11.6052 22.1543 13.6923 21.3264 15.3446L23.3283 17.176C24.0226 15.4359 25.4125 14.0696 27.6145 13.935C30.0398 13.7866 30.9834 15.0742 31.1904 16.8874L25.758 19.7181C23.6166 20.842 22.1329 22.2461 22.2598 24.3203C22.3847 26.3627 23.9444 27.7728 26.5612 27.6127ZM25.0407 23.7018C24.9821 22.7444 25.6133 22.0652 27.0383 21.2734L31.4091 18.892L31.5398 21.0301C31.6765 23.2639 29.931 25.1004 27.3142 25.2604C25.8781 25.3483 25.1051 24.7549 25.0407 23.7018ZM44.4042 26.5534C46.5423 26.4227 47.9498 25.3436 48.5555 24.2495L47.4622 21.5617C47.1059 22.5444 46.2188 23.7518 44.8466 23.8357C43.6339 23.9099 42.6792 23.4878 42.5582 21.5093L42.039 13.0207L47.113 12.7103L46.9803 10.5403L41.9063 10.8507L41.6603 6.82974L39.0089 9.04192L39.1299 11.0205L36.6408 11.1727L36.7735 13.3427L39.2627 13.1905L39.8326 22.5088C39.9946 25.1575 41.8832 26.7076 44.4042 26.5534ZM53.4577 25.6474L52.9229 16.9035C52.7609 14.2548 54.4055 11.8159 56.3841 11.6949C57.501 11.6265 58.0265 12.3632 58.0812 13.2567C58.1339 14.1183 57.7776 15.1011 57.2943 15.5791L60.3259 15.3936C60.5578 14.9951 60.8503 14.0162 60.7703 12.7078C60.6376 10.5378 58.9697 9.45467 57.3103 9.55616C54.6935 9.71621 53.2248 11.8881 52.7648 14.3186L52.513 10.2019L49.7367 10.3717L50.6814 25.8172L53.4577 25.6474ZM69.9496 24.959C74.2258 24.6974 77.0642 21.3527 76.7656 16.4702C76.467 11.5876 73.2421 8.61376 68.9659 8.87531C64.6897 9.13685 61.8832 12.4796 62.1818 17.3622C62.4804 22.2447 65.6734 25.2205 69.9496 24.959ZM69.8071 22.6294C67.1903 22.7895 65.2601 21.0817 65.022 17.1885C64.7819 13.2633 66.4916 11.3649 69.1084 11.2049C71.7571 11.0429 73.7173 12.7168 73.9574 16.6419C74.1955 20.5352 72.4558 22.4674 69.8071 22.6294ZM83.5 23.8099L82.9652 15.066C82.8071 12.4811 83.7652 10.3405 86.0948 10.198C88.4244 10.0555 89.5458 11.108 89.6844 13.3738L90.2972 23.3942L93.0736 23.2244L92.5388 14.4804C92.3807 11.8956 93.3388 9.75492 95.7003 9.61049C97.998 9.46996 99.1513 10.5205 99.2899 12.7863L99.9028 22.8067L102.647 22.6388L101.993 11.9483C101.794 8.69323 100.119 6.96988 97.0877 7.15531C94.2794 7.32707 92.8107 9.49894 92.3546 11.9933C92.0174 9.09902 90.3542 7.56714 87.514 7.74085C84.7377 7.91066 83.267 10.0506 82.8051 12.4492L82.5553 8.36446L79.7789 8.53427L80.7236 23.9797L83.5 23.8099ZM110.05 22.5064C113.241 22.3112 114.76 19.912 115.146 17.8384L115.212 18.9234C115.345 21.0934 116.54 21.7891 118.136 21.6915L119.923 21.5822L119.769 19.0611L118.78 19.1216C118.205 19.1568 117.904 18.9509 117.859 18.217L117.471 11.8665C117.247 8.19657 115.066 6.05573 111.268 6.28799C107.822 6.49879 105.643 8.58596 104.815 10.2382L106.817 12.0696C107.511 10.3295 108.901 8.96324 111.103 8.82857C113.528 8.68023 114.472 9.96783 114.679 11.781L109.247 14.6117C107.105 15.7356 105.622 17.1397 105.748 19.2139C105.873 21.2563 107.433 22.6664 110.05 22.5064ZM108.529 18.5954C108.471 17.6381 109.102 16.9588 110.527 16.167L114.898 13.7856L115.029 15.9237C115.165 18.1575 113.42 19.994 110.803 20.154C109.367 20.2419 108.594 19.6485 108.529 18.5954Z"
        fill="#151515" />
</svg>
