<svg width="160" height="160" viewBox="0 0 160 160" fill="none" xmlns="http://www.w3.org/2000/svg">
  <g opacity="0.92">
    <path
      d="M127.61 30.22C141.69 30.22 150.49 45.31 143.45 57.38L94.15 141.9L88.87 150.95C81.83 163.02 64.22 163.02 57.18 150.95L51.1001 140.53L2.59005 57.39C-4.44995 45.32 4.35005 30.23 18.43 30.23C24.96 30.23 31.0001 33.68 34.2701 39.28L56.3801 77.18C63.4201 89.25 81.0201 89.25 88.0601 77.18L110.16 39.29C113.43 33.69 119.47 30.24 126 30.24H127.61V30.22Z"
      fill="#F7A81C" />
    <path
      d="M155.77 33.58C150.78 42.79 148.28 28.98 138.98 24.04C129.68 19.1 117.09 24.88 122.09 15.68C127.08 6.47 143.99 -3.64999 153.29 1.30001C162.58 6.24001 160.76 24.38 155.77 33.58Z"
      fill="#F7A81C" />
  </g>
</svg>
