<svg width="133" height="36" viewBox="0 0 133 36" fill="none" xmlns="http://www.w3.org/2000/svg">
    <path
        d="M15.8188 11.6942L16.7874 10.5995C18.6894 8.44971 21.9844 8.19784 24.1452 10.0874C24.964 10.8051 25.5375 11.7613 25.7851 12.8216C26.0326 13.882 25.9417 14.9932 25.5252 15.9993C25.3253 16.4799 25.2806 17.011 25.3971 17.5183C25.5138 18.0256 25.7858 18.4839 26.1755 18.829C26.8093 18.111 27.2953 17.2751 27.6059 16.3691C27.9166 15.4632 28.0457 14.5049 27.9859 13.549C27.926 12.5932 27.6785 11.6585 27.2574 10.7983C26.8362 9.93818 26.2497 9.16943 25.5313 8.53601C22.5089 5.8772 17.8877 6.21643 15.2203 9.23124L5.98838 19.6657L5.13054 18.9068C2.9443 16.9725 2.72519 13.6057 4.698 11.4538C5.42839 10.6596 6.38729 10.1117 7.44237 9.88563C8.49744 9.65958 9.59665 9.76659 10.5883 10.1919C11.0412 10.39 11.5451 10.44 12.0281 10.3347C12.511 10.2293 12.9484 9.97405 13.2776 9.6053L13.3012 9.57883C13.3085 9.57061 13.3141 9.56101 13.3177 9.55059C13.3213 9.54018 13.3228 9.52916 13.3221 9.51816C13.3215 9.50716 13.3186 9.49641 13.3138 9.48652C13.3089 9.47663 13.3022 9.46779 13.2939 9.4605C11.8598 8.22386 10.0008 7.59368 8.11031 7.70329C6.21983 7.81291 4.44612 8.65372 3.16454 10.0478C0.404375 13.059 0.702867 17.7673 3.76229 20.474L14.1939 29.7032L13.2136 30.8113C11.3116 32.9611 8.01637 33.2129 5.85575 31.3233C5.03692 30.6057 4.46345 29.6495 4.21591 28.5892C3.96837 27.5288 4.05917 26.4176 4.47558 25.4115C4.67548 24.9309 4.72028 24.3998 4.60373 23.8926C4.48716 23.3852 4.21506 22.9269 3.82543 22.5818C3.19166 23.2999 2.70557 24.1357 2.39493 25.0416C2.0843 25.9476 1.95521 26.9058 2.01504 27.8618C2.07486 28.8176 2.32242 29.7523 2.74359 30.6124C3.16476 31.4726 3.75127 32.2414 4.46962 32.8748C7.4919 35.5337 12.1133 35.1946 14.7807 32.1797L24.0245 21.7313L24.8856 22.4931C27.0354 24.3951 27.2872 27.6901 25.3976 29.8508C24.68 30.6697 23.7238 31.2431 22.6635 31.4908C21.6032 31.7383 20.4919 31.6474 19.4858 31.2309C19.005 31.0309 18.4737 30.9861 17.9662 31.1029C17.4587 31.2195 17.0003 31.4919 16.6552 31.8818C17.3733 32.5156 18.2091 33.0018 19.115 33.3124C20.021 33.623 20.9792 33.7521 21.9352 33.6923C22.891 33.6324 23.8257 33.3848 24.6858 32.9637C25.546 32.5425 26.3148 31.9559 26.9482 31.2376C29.6071 28.2153 29.2679 23.594 26.2531 20.9267L15.8188 11.6942ZM15.5721 28.1448L7.54653 21.0444L14.4402 13.2527L22.4657 20.353L15.5721 28.1448Z"
        fill="#151515" />
    <path
        d="M41.4646 27.8901C39.9597 27.9822 38.7822 27.611 37.9321 26.7766C37.0883 25.9418 36.573 24.7624 36.3861 23.2382L38.7377 22.4952C39.0019 24.876 39.8709 26.0213 41.3448 25.9312C42.5388 25.8582 43.0993 25.2246 43.0263 24.0306C43.0046 23.6761 42.9349 23.3527 42.8172 23.0603C42.7052 22.7612 42.5422 22.4934 42.3279 22.2568C42.1133 22.014 41.9206 21.823 41.7498 21.6836C41.5786 21.538 41.3462 21.3618 41.0527 21.1551L37.9216 18.9496C37.3481 18.554 36.8763 18.0366 36.5064 17.3976C36.1423 16.7519 35.9344 16.0062 35.8827 15.1605C35.8074 13.9291 36.1299 12.9263 36.8504 12.1519C37.5708 11.3775 38.5622 10.9517 39.8247 10.8744C41.1804 10.7915 42.2766 11.0584 43.1133 11.6752C43.9559 12.2853 44.5075 13.191 44.7683 14.3923C44.7949 14.5217 44.8277 14.7008 44.8666 14.9293L42.5151 15.6724C42.5024 15.5671 42.4772 15.4094 42.4394 15.1995C42.2872 14.4473 42.0107 13.8556 41.6098 13.4244C41.2148 12.9867 40.6596 12.7897 39.9445 12.8334C39.3723 12.8684 38.9407 13.0571 38.6495 13.3995C38.358 13.7357 38.2297 14.1898 38.2647 14.762C38.3221 15.701 38.7682 16.4634 39.6031 17.049L42.7342 19.2545C44.405 20.4444 45.2951 21.9349 45.4047 23.726C45.4796 24.9511 45.1588 25.932 44.4423 26.6687C43.7321 27.405 42.7395 27.8122 41.4646 27.8901Z"
        fill="#151515" />
    <path
        d="M50.5146 25.3703C51.1427 25.3319 51.7298 25.1337 52.276 24.7757L51.8241 17.3877C51.7984 17.3768 51.734 17.3432 51.6307 17.2871C51.5274 17.231 51.4534 17.195 51.4087 17.179C51.3699 17.1564 51.3023 17.1231 51.206 17.079C51.1096 17.035 51.0298 17.0055 50.9665 16.9907C50.909 16.9692 50.8328 16.9489 50.738 16.9298C50.6491 16.904 50.5607 16.8875 50.4728 16.8804C50.3912 16.8729 50.3038 16.872 50.2105 16.8778C50.0115 16.8899 49.8371 16.9474 49.6873 17.0502C49.5434 17.1464 49.4255 17.2597 49.3336 17.3902C49.2417 17.5206 49.1655 17.7032 49.1049 17.9379C49.0506 18.1722 49.0134 18.3804 48.9933 18.5627C48.9729 18.7387 48.9625 18.9765 48.9621 19.2762C48.9613 19.5696 48.9627 19.7974 48.9664 19.9594C48.9763 20.1211 48.9902 20.3481 49.0081 20.6404C49.0088 20.6529 49.0094 20.6622 49.0098 20.6684C49.0162 20.7741 49.0267 20.9451 49.0412 21.1815C49.0556 21.4178 49.0695 21.6448 49.0828 21.8624C49.0961 22.0801 49.1087 22.2853 49.1205 22.4781C49.1522 22.8944 49.1933 23.2602 49.2438 23.5754C49.3001 23.8841 49.378 24.1883 49.4775 24.4881C49.5828 24.7813 49.7214 25.0069 49.8934 25.1649C50.0712 25.3163 50.2783 25.3848 50.5146 25.3703ZM52.6343 30.6339L52.3496 25.9791C52.0175 26.3677 51.6689 26.6886 51.3036 26.9419C50.9445 27.1948 50.5225 27.3361 50.0374 27.3658C49.5772 27.394 49.1597 27.304 48.7849 27.096C48.416 26.8813 48.1115 26.5972 47.8714 26.2436C47.6375 25.8896 47.4338 25.4683 47.2604 24.9795C47.0927 24.4841 46.9661 23.9956 46.8805 23.514C46.801 23.0319 46.7454 22.5297 46.7134 22.0073L46.6021 20.1883C46.5691 19.6473 46.5637 19.1514 46.5861 18.7005C46.6084 18.2497 46.6716 17.8027 46.7756 17.3594C46.8795 16.9161 47.0281 16.5387 47.2213 16.2273C47.4203 15.9092 47.6916 15.6492 48.035 15.4472C48.3781 15.2389 48.7828 15.1205 49.2492 15.092C49.5166 15.0756 49.7677 15.0977 50.0023 15.1583C50.2428 15.2122 50.4736 15.3105 50.6945 15.453C50.9217 15.5952 51.098 15.7217 51.2234 15.8327C51.3546 15.937 51.5328 16.0946 51.7579 16.3056L51.6849 15.1116L54.0729 14.9655L55.0223 30.4879L52.6343 30.6339Z"
        fill="#151515" />
    <path
        d="M58.4329 26.8523C57.9105 26.8843 57.4795 26.7265 57.1399 26.379C56.7999 26.0252 56.6132 25.5747 56.5797 25.0275L55.9572 14.8502L58.3453 14.7042L58.9233 24.1538C58.9385 24.4026 59.0255 24.6001 59.1842 24.7464C59.3492 24.8924 59.553 24.958 59.7955 24.9431C59.9261 24.9352 60.0526 24.9118 60.1751 24.8731C60.2976 24.8344 60.4156 24.7741 60.5292 24.6923C60.6487 24.6038 60.7413 24.5357 60.807 24.488C60.8724 24.4341 60.9638 24.3473 61.0813 24.2278C61.2051 24.1079 61.2818 24.0345 61.3113 24.0077L60.7334 14.5581L63.1214 14.4121L63.8517 26.3523L61.4637 26.4984L61.3849 25.2111C61.1612 25.4308 60.9962 25.5907 60.8899 25.6908C60.7899 25.7906 60.6329 25.9281 60.4189 26.1035C60.2045 26.2727 60.0126 26.3999 59.843 26.4852C59.6793 26.5638 59.4716 26.639 59.2201 26.7105C58.9689 26.7883 58.7065 26.8356 58.4329 26.8523Z"
        fill="#151515" />
    <path
        d="M69.0966 24.2338C69.2646 24.2235 69.4232 24.1639 69.5726 24.0549C69.7282 23.9455 69.8436 23.8417 69.9187 23.7435C69.9938 23.6452 70.0857 23.5148 70.1944 23.3521C70.2111 23.3198 70.2254 23.2971 70.237 23.2839L70.0351 19.9817C69.9398 20.0562 69.7814 20.172 69.5601 20.3291C69.3387 20.4862 69.1625 20.6156 69.0314 20.7172C68.8999 20.8127 68.7427 20.9471 68.5598 21.1206C68.3765 21.2879 68.2366 21.4494 68.14 21.6051C68.043 21.7546 67.9606 21.9375 67.8927 22.1539C67.8247 22.3703 67.7978 22.5935 67.8119 22.8236C67.8724 23.8124 68.3006 24.2825 69.0966 24.2338ZM68.0224 26.2658C67.357 26.3065 66.7736 26.055 66.2722 25.5114C65.7766 24.9612 65.5068 24.3254 65.4626 23.604C65.4273 23.0257 65.4915 22.4943 65.6554 22.0098C65.8255 21.525 66.0108 21.1361 66.2114 20.8429C66.4115 20.5435 66.7575 20.229 67.2491 19.8993C67.7405 19.5634 68.1133 19.3314 68.3676 19.2035C68.622 19.0756 69.0647 18.8644 69.6959 18.5699C69.8052 18.5195 69.8871 18.4801 69.9415 18.4518L69.889 17.5936C69.8521 16.9904 69.7396 16.5291 69.5516 16.2098C69.3631 15.8842 69.0388 15.7355 68.5786 15.7637C68.1681 15.7888 67.8815 15.9499 67.7186 16.247C67.5616 16.5375 67.4859 16.9322 67.4915 17.4313C67.4894 17.5001 67.4926 17.6029 67.501 17.7397L65.1129 17.8857C65.0553 16.7407 65.3199 15.8101 65.9065 15.0938C66.4932 14.3775 67.3462 13.9851 68.4656 13.9167C69.5788 13.8486 70.4737 14.1403 71.1502 14.7918C71.8326 15.4367 72.2082 16.3219 72.2771 17.4476L72.6057 22.8207C72.6818 24.0645 72.8452 25.0532 73.0961 25.7869L70.7174 25.9324L70.2907 24.1608C70.1815 24.4171 70.0907 24.6162 70.0182 24.758C69.952 24.8993 69.8505 25.0772 69.7138 25.2916C69.5767 25.4997 69.4369 25.6643 69.2945 25.7854C69.1517 25.9002 68.9709 26.0049 68.752 26.0995C68.533 26.194 68.2898 26.2494 68.0224 26.2658Z"
        fill="#151515" />
    <path
        d="M74.8498 25.6797L74.1195 13.7394L76.5076 13.5933L76.6052 15.1885C76.8188 14.701 77.1451 14.2691 77.5839 13.8927C78.0287 13.5097 78.534 13.3009 79.0999 13.2662C79.1186 13.2651 79.2468 13.2697 79.4847 13.2802L79.6461 15.9201C79.194 15.773 78.7471 15.7129 78.3055 15.7399C77.808 15.7703 77.416 15.9441 77.1296 16.2613C76.8431 16.5784 76.7149 16.9826 76.7449 17.4739L77.2379 25.5336L74.8498 25.6797Z"
        fill="#151515" />
    <path
        d="M84.6176 25.2508C84.0392 25.2862 83.5294 25.2175 83.0881 25.0447C82.6531 24.8716 82.2983 24.6342 82.024 24.3327C81.7554 24.0245 81.5282 23.6264 81.3423 23.1384C81.156 22.6442 81.0166 22.1502 80.924 21.6565C80.8372 21.1562 80.7672 20.5737 80.7141 19.909C80.6635 19.3878 80.6315 18.8654 80.6182 18.3419C80.5989 17.7189 80.6056 17.166 80.6385 16.6834C80.6773 16.1941 80.7636 15.7175 80.8975 15.2537C81.0314 14.7898 81.2169 14.4039 81.454 14.096C81.6974 13.7878 82.022 13.5338 82.428 13.3342C82.8399 13.128 83.3257 13.0078 83.8854 12.9736C84.3953 12.9424 84.8473 12.9834 85.2412 13.0966C85.641 13.2032 85.9767 13.3856 86.2484 13.6436C86.526 13.8951 86.7588 14.1804 86.9469 14.4998C87.1412 14.8187 87.2963 15.2119 87.4123 15.6792C87.5279 16.1403 87.6151 16.5968 87.6739 17.0489C87.739 17.5006 87.7896 18.0219 87.8258 18.6127L87.8429 18.8925L83.0668 19.1846L83.1033 19.7816C83.1082 19.8625 83.116 19.99 83.1267 20.1641C83.1283 20.395 83.1398 20.6346 83.1613 20.883C83.1885 21.1247 83.2156 21.3634 83.2425 21.599C83.2694 21.8345 83.3175 22.0594 83.3868 22.2737C83.4557 22.4817 83.5355 22.6641 83.6262 22.8208C83.717 22.9775 83.8367 23.0982 83.9855 23.1827C84.1404 23.2669 84.3174 23.3029 84.5164 23.2907C84.7652 23.2755 84.9675 23.2163 85.1235 23.1131C85.2791 23.0037 85.3883 22.8504 85.4512 22.653C85.5202 22.4553 85.5644 22.2591 85.5837 22.0644C85.603 21.8697 85.6068 21.626 85.5952 21.3333L85.5644 20.8296L87.9338 20.6847L87.9629 21.1604C87.9849 22.4387 87.7298 23.4219 87.1976 24.1099C86.6654 24.7978 85.8054 25.1781 84.6176 25.2508ZM82.9937 17.9906L85.3631 17.8457L85.3192 17.1274C85.2936 16.8106 85.258 16.535 85.2125 16.3006C85.1669 16.0662 85.0965 15.8333 85.0012 15.6019C84.9121 15.3702 84.7829 15.197 84.6136 15.0826C84.4443 14.9681 84.2415 14.918 84.0052 14.9325C83.7627 14.9473 83.5614 15.0252 83.4015 15.1661C83.2478 15.3065 83.1381 15.5036 83.0725 15.7573C83.0127 16.0044 82.9745 16.2471 82.9578 16.4853C82.9412 16.7235 82.9399 17.0076 82.9538 17.3376L82.9937 17.9906Z"
        fill="#151515" />
    <path
        d="M94.4123 24.6517C92.9073 24.7438 91.7298 24.3726 90.8798 23.5382C90.036 22.7034 89.5207 21.524 89.3338 19.9998L91.6854 19.2567C91.9496 21.6376 92.8186 22.7829 94.2925 22.6928C95.4865 22.6197 96.047 21.9862 95.974 20.7922C95.9523 20.4377 95.8826 20.1143 95.7648 19.8218C95.6529 19.5228 95.4899 19.255 95.2756 19.0184C95.061 18.7756 94.8683 18.5845 94.6975 18.4452C94.5263 18.2996 94.2939 18.1234 94.0004 17.9167L90.8693 15.7112C90.2957 15.3155 89.824 14.7982 89.4541 14.1592C89.09 13.5135 88.8821 12.7678 88.8304 11.922C88.7551 10.6907 89.0776 9.68783 89.7981 8.91343C90.5185 8.13904 91.5099 7.71323 92.7723 7.63602C94.1281 7.5531 95.2243 7.82001 96.061 8.43674C96.9036 9.04688 97.4552 9.95259 97.7159 11.1539C97.7426 11.2833 97.7754 11.4623 97.8143 11.6909L95.4628 12.434C95.4501 12.3286 95.4249 12.171 95.3871 11.9611C95.2349 11.2089 94.9584 10.6172 94.5575 10.186C94.1625 9.74824 93.6073 9.55123 92.8922 9.59497C92.32 9.62997 91.8884 9.81866 91.5972 10.1611C91.3057 10.4972 91.1774 10.9514 91.2124 11.5235C91.2698 12.4626 91.7159 13.2249 92.5508 13.8106L95.6819 16.0161C97.3527 17.206 98.2428 18.6965 98.3524 20.4875C98.4273 21.7127 98.1065 22.6936 97.39 23.4303C96.6798 24.1666 95.6872 24.5737 94.4123 24.6517Z"
        fill="#151515" />
    <path
        d="M103.545 24.0932C102.606 24.1506 101.907 23.953 101.449 23.5004C100.996 23.0474 100.734 22.3362 100.663 21.3668L100.209 13.9415L99.0145 14.0145L98.905 12.2235L100.099 12.1504L99.8434 7.97132L102.231 7.82526L102.487 12.0044L104.278 11.8948L104.388 13.6859L102.597 13.7954L103.023 20.7637C103.052 21.2425 103.139 21.5899 103.283 21.8058C103.427 22.0217 103.699 22.1175 104.097 22.0931C104.271 22.0825 104.536 22.035 104.893 21.9508L105.012 23.8911C104.419 24.0022 103.93 24.0696 103.545 24.0932Z"
        fill="#151515" />
    <path
        d="M112.73 22.4078C112.222 23.1879 111.328 23.6171 110.047 23.6955C108.766 23.7738 107.825 23.4568 107.226 22.7444C106.627 22.032 106.285 20.973 106.199 19.5676L105.98 15.9855C105.894 14.58 106.105 13.4872 106.612 12.7071C107.12 11.927 108.015 11.4977 109.296 11.4194C110.577 11.341 111.517 11.6581 112.116 12.3705C112.715 13.0829 113.058 14.1418 113.144 15.5473L113.363 19.1294C113.449 20.5349 113.238 21.6277 112.73 22.4078ZM109.474 21.6893C109.608 21.7311 109.759 21.7468 109.927 21.7365C110.095 21.7263 110.239 21.6924 110.361 21.6351C110.488 21.5774 110.59 21.5118 110.667 21.4385C110.75 21.3585 110.815 21.2484 110.862 21.1082C110.909 20.9617 110.945 20.8347 110.97 20.727C110.995 20.6194 111.007 20.4657 111.007 20.266C111.008 20.0662 111.004 19.9103 110.997 19.7984C110.996 19.6799 110.989 19.5055 110.975 19.2754L110.756 15.6934C110.742 15.4633 110.728 15.2924 110.715 15.1809C110.708 15.0627 110.692 14.9045 110.667 14.7063C110.643 14.508 110.612 14.357 110.574 14.2532C110.536 14.1494 110.485 14.0307 110.421 13.8974C110.356 13.7577 110.278 13.6564 110.187 13.5933C110.102 13.5236 109.992 13.4679 109.859 13.4261C109.731 13.384 109.584 13.3681 109.416 13.3783C109.248 13.3886 109.1 13.4226 108.972 13.4803C108.851 13.5377 108.749 13.6064 108.667 13.6863C108.59 13.7597 108.528 13.8696 108.481 14.016C108.433 14.1563 108.397 14.2802 108.372 14.3878C108.348 14.4954 108.335 14.6491 108.335 14.8489C108.335 15.0487 108.335 15.2078 108.336 15.3264C108.343 15.4383 108.354 15.6093 108.368 15.8394L108.587 19.4215C108.601 19.6516 108.611 19.8257 108.619 19.9439C108.632 20.0555 108.651 20.2104 108.675 20.4086C108.7 20.6068 108.731 20.7579 108.768 20.8617C108.806 20.9655 108.857 21.0872 108.922 21.2268C108.986 21.3602 109.061 21.4618 109.146 21.5315C109.238 21.5945 109.347 21.6471 109.474 21.6893Z"
        fill="#151515" />
    <path
        d="M115.577 23.1887L114.847 11.2484L117.235 11.1023L117.314 12.3896C117.649 12.0446 117.923 11.7812 118.136 11.5996C118.35 11.4118 118.648 11.2313 119.03 11.0581C119.419 10.8783 119.837 10.7747 120.285 10.7473C120.795 10.7161 121.219 10.8774 121.559 11.2311C121.899 11.5848 122.086 12.0322 122.119 12.5733L122.742 22.7505L120.354 22.8965L119.806 13.9413C119.78 13.5247 119.703 13.2267 119.573 13.0473C119.443 12.8618 119.198 12.78 118.837 12.8021C118.632 12.8146 118.429 12.8707 118.23 12.9703C118.035 13.0634 117.891 13.1502 117.796 13.2309C117.701 13.3054 117.565 13.4261 117.387 13.593L117.965 23.0426L115.577 23.1887Z"
        fill="#151515" />
    <path
        d="M128.218 22.5841C127.64 22.6194 127.13 22.5507 126.689 22.378C126.254 22.2048 125.899 21.9675 125.625 21.6659C125.356 21.3578 125.129 20.9597 124.943 20.4717C124.757 19.9774 124.617 19.4835 124.525 18.9898C124.438 18.4895 124.368 17.907 124.315 17.2423C124.264 16.7211 124.232 16.1987 124.219 15.6752C124.2 15.0521 124.206 14.4993 124.239 14.0166C124.278 13.5274 124.364 13.0508 124.498 12.5869C124.632 12.1231 124.818 11.7372 125.055 11.4293C125.298 11.121 125.623 10.8671 126.029 10.6675C126.441 10.4613 126.926 10.3411 127.486 10.3068C127.996 10.2756 128.448 10.3166 128.842 10.4299C129.242 10.5365 129.577 10.7189 129.849 10.9769C130.127 11.2283 130.359 11.5137 130.548 11.833C130.742 12.152 130.897 12.5451 131.013 13.0124C131.129 13.4735 131.216 13.9301 131.275 14.3822C131.34 14.8339 131.39 15.3551 131.426 15.9459L131.444 16.2258L126.667 16.5179L126.704 17.1149C126.709 17.1958 126.717 17.3232 126.727 17.4974C126.729 17.7282 126.741 17.9679 126.762 18.2162C126.789 18.458 126.816 18.6967 126.843 18.9322C126.87 19.1678 126.918 19.3927 126.987 19.6069C127.056 19.8149 127.136 19.9973 127.227 20.1541C127.318 20.3108 127.437 20.4315 127.586 20.516C127.741 20.6001 127.918 20.6361 128.117 20.624C128.366 20.6088 128.568 20.5496 128.724 20.4464C128.88 20.337 128.989 20.1836 129.052 19.9863C129.121 19.7885 129.165 19.5923 129.184 19.3976C129.204 19.203 129.208 18.9593 129.196 18.6666L129.165 18.1629L131.534 18.018L131.564 18.4937C131.586 19.772 131.33 20.7551 130.798 21.4431C130.266 22.1311 129.406 22.5114 128.218 22.5841ZM126.594 15.3239L128.964 15.179L128.92 14.4607C128.894 14.1439 128.859 13.8683 128.813 13.6339C128.768 13.3995 128.697 13.1666 128.602 12.9352C128.513 12.7034 128.384 12.5303 128.214 12.4158C128.045 12.3013 127.842 12.2513 127.606 12.2658C127.363 12.2806 127.162 12.3585 127.002 12.4993C126.848 12.6398 126.739 12.8369 126.673 13.0906C126.613 13.3377 126.575 13.5804 126.559 13.8186C126.542 14.0568 126.541 14.3409 126.554 14.6709L126.594 15.3239Z"
        fill="#151515" />
</svg>
