<svg width="116" height="34" viewBox="0 0 116 34" fill="none" xmlns="http://www.w3.org/2000/svg">
    <path
        d="M22.6427 16.1976L22.6264 16.1832C22.6251 16.1824 22.624 16.1813 22.6233 16.18L12.4383 7.16885L3.42741 17.3539C3.42638 17.355 3.42585 17.3566 3.42478 17.3574L3.40988 17.3737C2.0325 18.9393 1.21797 20.9205 1.09579 23.0022C0.973604 25.084 1.55077 27.1468 2.73554 28.8629C3.92032 30.579 5.6447 31.8498 7.63458 32.4732C9.62444 33.0966 11.7656 33.0371 13.7177 32.3038C13.882 32.2424 14.0609 32.2314 14.2315 32.2724C16.2582 32.762 18.3905 32.5602 20.2895 31.6988C22.1884 30.8374 23.7449 29.3661 24.7116 27.5185C25.6784 25.671 25.9999 23.5533 25.625 21.5021C25.2502 19.4509 24.2004 17.5837 22.6427 16.1976ZM7.22857 23.4933C7.1847 23.5429 7.15104 23.6006 7.1295 23.6632C7.10795 23.7257 7.09894 23.7919 7.10299 23.858C7.22368 25.5509 7.80378 27.1789 8.78087 28.5667C8.80306 28.5981 8.81473 28.6359 8.81421 28.6743C8.81369 28.7128 8.80101 28.7502 8.77797 28.7811C8.75495 28.8119 8.72274 28.8347 8.68597 28.8461C8.6492 28.8576 8.60976 28.8571 8.57328 28.8448C7.88785 28.6046 7.2558 28.2331 6.71248 27.7513C5.59918 26.7661 4.92235 25.3793 4.83065 23.8956C4.73894 22.4118 5.23984 20.9523 6.22337 19.8376L12.7612 12.4486L20.1504 18.9858C21.2626 19.9721 21.9379 21.3598 22.0276 22.8438C22.1175 24.3276 21.6146 25.7866 20.6296 26.9001C20.149 27.4446 19.567 27.8903 18.9161 28.2122C18.8813 28.2289 18.8422 28.2342 18.8043 28.2273C18.7665 28.2204 18.7317 28.2016 18.705 28.1739C18.6784 28.146 18.6612 28.1105 18.656 28.0723C18.6508 28.0341 18.6578 27.9953 18.676 27.9613C19.4769 26.4649 19.8545 24.7784 19.7682 23.0833C19.7642 23.0173 19.7471 22.9526 19.7179 22.8931C19.6888 22.8336 19.6482 22.7804 19.5985 22.7366L16.0911 19.4444C16.0566 19.419 16.0144 19.4066 15.9717 19.4092C15.929 19.4118 15.8886 19.4293 15.8575 19.4587C15.8263 19.488 15.8066 19.5274 15.8015 19.5699C15.7964 19.6124 15.8063 19.6552 15.8297 19.691C17.2505 21.9277 16.3538 25.32 14.6316 27.2669L14.6226 27.2772C14.3847 27.5431 14.0515 27.7044 13.6953 27.7261C13.3392 27.7477 12.9889 27.628 12.7205 27.3929L12.7111 27.3844C10.7638 25.6619 9.46098 22.4045 10.5988 20.0115C10.6176 19.973 10.6223 19.9293 10.612 19.8878C10.6018 19.8462 10.5774 19.8095 10.5429 19.7843C10.5084 19.7589 10.4662 19.7464 10.4235 19.749C10.3808 19.7516 10.3404 19.7692 10.3093 19.7986L7.22857 23.4933Z"
        fill="#151515" />
    <path
        d="M46.1574 13.1524L49.3339 12.9581L46.7123 24.1691L43.082 24.3911L41.1448 17.9743L39.9843 24.5806L36.354 24.8027L32.3856 13.9947L35.7595 13.7883L37.9491 21.4176L39.1728 13.5796L42.744 13.3612L44.9139 20.9916L46.1574 13.1524Z"
        fill="#151515" />
    <path
        d="M58.0451 19.9706C58.5028 19.4674 58.7051 18.7816 58.652 17.9135C58.5989 17.0454 58.315 16.396 57.8001 15.9654C57.2845 15.5216 56.711 15.3191 56.0796 15.3577C55.4482 15.3963 54.9037 15.6673 54.446 16.1706C53.9883 16.6738 53.786 17.3596 53.8391 18.2277C53.8922 19.0958 54.1765 19.7518 54.6922 20.1955C55.207 20.6261 55.7801 20.8221 56.4115 20.7835C57.0428 20.7449 57.5874 20.4739 58.0451 19.9706ZM52.1134 22.3931C51.0757 21.4003 50.5066 20.0819 50.406 18.4377C50.3054 16.7935 50.7096 15.4155 51.6186 14.3037C52.5268 13.1787 53.6781 12.5736 55.0723 12.4883C56.4798 12.4022 57.5901 12.8558 58.4034 13.8491L58.3153 12.4088L61.6892 12.2024L62.3626 23.2119L58.9887 23.4182L58.891 21.8201C58.1462 23.0275 57.0899 23.673 55.7219 23.7567C54.354 23.8403 53.1511 23.3858 52.1134 22.3931Z"
        fill="#151515" />
    <path
        d="M63.2527 12.1068L66.8436 11.8872L69.8501 19.922L71.8551 11.5806L75.446 11.361L72.2128 22.6094L67.8326 22.8773L63.2527 12.1068Z"
        fill="#151515" />
    <path
        d="M82.3621 22.1273C80.7574 22.2254 79.4106 21.7929 78.3219 20.8297C77.2324 19.8533 76.6353 18.5102 76.5307 16.8002C76.4262 15.0902 76.8493 13.6979 77.8002 12.6231C78.7642 11.5475 80.0552 10.9603 81.673 10.8613C83.2909 10.7624 84.6631 11.1801 85.7897 12.1147C86.9163 13.0492 87.5339 14.4043 87.6425 16.18C87.6658 16.5614 87.6612 16.9182 87.6287 17.2502L80.0523 17.7136C80.1479 18.1963 80.3894 18.5842 80.777 18.8774C81.1638 19.1574 81.5677 19.2845 81.9886 19.2588C82.4227 19.2322 82.7425 19.173 82.9481 19.0812C83.153 18.9763 83.299 18.8815 83.3863 18.797C83.4858 18.6985 83.6085 18.5457 83.7543 18.3388L87.4044 18.1155C87.1563 19.2397 86.5796 20.1728 85.6744 20.9147C84.7684 21.6435 83.6643 22.0477 82.3621 22.1273ZM84.0666 15.3491C83.9826 14.8393 83.7336 14.4387 83.3197 14.1471C82.905 13.8424 82.428 13.7065 81.8887 13.7395C81.3494 13.7725 80.9056 13.9647 80.5575 14.3161C80.2085 14.6543 80.0036 15.0827 79.9429 15.6013L84.0666 15.3491Z"
        fill="#151515" />
    <path
        d="M92.8444 10.2969L92.9699 12.3488C93.6706 10.8537 94.6786 10.0659 95.994 9.98543L96.2039 13.4185L95.3753 13.4692C94.5992 13.5166 94.0251 13.7366 93.6531 14.129C93.2941 14.5206 93.1428 15.1768 93.1991 16.0976L93.5177 21.3064L90.1439 21.5127L89.4705 10.5032L92.8444 10.2969Z"
        fill="#151515" />
    <path
        d="M100.835 8.56053C100.476 8.96531 100.021 9.18459 99.4688 9.21838C98.9163 9.25217 98.4377 9.09001 98.0329 8.73189C97.6281 8.37377 97.4089 7.91848 97.3751 7.36603C97.3405 6.80043 97.5022 6.31524 97.8604 5.91046C98.2185 5.50568 98.6738 5.28639 99.2262 5.2526C99.7787 5.21881 100.257 5.38098 100.662 5.7391C101.067 6.09722 101.287 6.55908 101.321 7.12468C101.355 7.67713 101.193 8.15574 100.835 8.56053ZM98.5061 21.0013L97.8327 9.99179L101.207 9.78543L101.88 20.7949L98.5061 21.0013Z"
        fill="#151515" />
    <path
        d="M111.244 16.7565C111.662 16.2556 111.844 15.558 111.789 14.6635C111.734 13.7691 111.463 13.1058 110.974 12.6735C110.485 12.2282 109.924 12.0248 109.293 12.0634C108.662 12.102 108.13 12.3722 107.699 12.8739C107.28 13.3616 107.098 14.0527 107.152 14.9471C107.207 15.8415 107.479 16.5114 107.968 16.9568C108.471 17.4014 109.038 17.6043 109.669 17.5657C110.301 17.5271 110.825 17.2574 111.244 16.7565ZM105.626 19.1399C104.458 18.1683 103.822 16.8341 103.718 15.1373C103.614 13.4405 104.084 12.0519 105.127 10.9715C106.169 9.878 107.506 9.28135 109.137 9.18159C110.768 9.08183 112.16 9.51155 113.315 10.4707C114.482 11.416 115.117 12.737 115.221 14.4338C115.325 16.1306 114.862 17.532 113.834 18.6379C112.806 19.7438 111.476 20.3466 109.845 20.4463C108.214 20.5461 106.808 20.1106 105.626 19.1399Z"
        fill="#151515" />
</svg>
