<svg width="128" height="33" viewBox="0 0 128 33" fill="none" xmlns="http://www.w3.org/2000/svg">
    <path
        d="M6.07148 16.3416L9.03812 14.38L7.1399 11.5136L23.2829 10.5262L16.0691 25.0003L14.1706 22.1287L11.2043 24.0955L16.5033 32.0996L29.2158 6.59791L0.772461 8.33759L6.07148 16.3416Z"
        fill="#151515" />
    <path
        d="M43.204 25.9361L48.4525 10.9921L45.518 11.1715L41.8357 22.0089L36.8393 11.7024L33.9048 11.8818L40.9354 26.0749L43.204 25.9361Z"
        fill="#151515" />
    <path
        d="M51.9239 10.7797L52.815 25.3483L63.6582 24.6851L63.5003 22.1044L55.446 22.597L55.2321 19.1006L62.0377 18.6843L61.8799 16.1036L55.0743 16.5198L54.8706 13.1899L62.8209 12.7036L62.663 10.1229L51.9239 10.7797Z"
        fill="#151515" />
    <path
        d="M66.7689 9.87178L67.66 24.4403L70.4488 24.2698L70.1344 19.1291L73.5268 18.9217L76.9006 23.8752L80.0016 23.6855L76.328 18.2699C77.9679 17.4175 78.9522 15.7488 78.8363 13.8549C78.7548 12.5229 78.2074 11.4283 77.1745 10.5932C76.1624 9.75683 74.9481 9.37152 73.5121 9.45935L66.7689 9.87178ZM73.6699 12.0401C74.8978 11.965 75.8475 12.8052 75.9226 14.0331C75.9977 15.261 75.1588 16.2315 73.9309 16.3066L69.9765 16.5484L69.7156 12.2819L73.6699 12.0401Z"
        fill="#151515" />
    <path
        d="M86.7258 11.2415L87.4591 23.2294L90.2687 23.0575L89.5355 11.0697L94.3639 10.7744L94.2061 8.19365L81.7396 8.95614L81.8974 11.5369L86.7258 11.2415Z"
        fill="#151515" />
    <path
        d="M98.0035 7.96139L98.8946 22.5299L109.738 21.8667L109.58 19.286L101.526 19.7787L101.312 16.2822L108.117 15.866L107.959 13.2852L101.154 13.7015L100.95 10.3715L108.9 9.88527L108.743 7.30456L98.0035 7.96139Z"
        fill="#151515" />
    <path
        d="M117.676 13.9234L112.72 21.6844L116.07 21.4794L119.481 16.1109L123.521 21.0237L126.851 20.82L121.006 13.7198L125.752 6.26422L122.422 6.46789L119.201 11.5323L115.388 6.89814L112.037 7.10308L117.676 13.9234Z"
        fill="#151515" />
</svg>
