<svg width="74" height="27" viewBox="0 0 74 27" fill="none" xmlns="http://www.w3.org/2000/svg">
    <path
        d="M14.5043 8.70175C11.7635 8.86939 6.13758 6.98336 5.96994 4.24246L5.92936 4.24494C6.06353 6.43863 7.06362 8.48917 8.70965 9.9455C10.3557 11.4018 12.5128 12.1447 14.7065 12.0106C16.0227 11.9301 17.317 12.3757 18.3047 13.2495C19.2923 14.1233 19.8924 15.3536 19.9729 16.6698C20.0537 17.986 19.6083 19.2805 18.7347 20.2683C17.8611 21.2562 16.6308 21.8564 15.3146 21.9373C13.9983 22.018 12.7039 21.5725 11.7161 20.6989C10.7283 19.8253 10.128 18.5951 10.0472 17.2789C9.98073 16.1926 9.70097 15.1301 9.22388 14.152C8.74678 13.1739 8.08171 12.2993 7.26662 11.5783C6.45153 10.8572 5.50241 10.3037 4.47341 9.94942C3.44443 9.59516 2.35573 9.44703 1.26949 9.51351L1.27195 9.55377C4.01234 9.38617 6.5698 14.738 6.73849 17.4792L6.73797 17.4792C6.83803 19.1152 7.42092 20.6847 8.41297 21.9894C9.40503 23.2941 10.7617 24.2753 12.3114 24.8089C13.8611 25.3426 15.5342 25.4047 17.1192 24.9874C18.7042 24.5702 20.1299 23.6923 21.216 22.4649C22.302 21.2374 22.9998 19.7154 23.2209 18.0913C23.4421 16.4673 23.1766 14.8142 22.4582 13.341C21.7398 11.8679 20.6007 10.6408 19.1849 9.81502C17.7691 8.98924 16.1402 8.60182 14.5043 8.70175Z"
        fill="#151515" />
    <path
        d="M31.8112 23.0628C31.8269 23.3194 32.072 23.5363 32.3287 23.5206L33.6121 23.4421C33.9201 23.4233 34.3246 23.2955 34.301 22.9105L33.8332 15.2613L38.7358 14.9614L39.2037 22.6106C39.2194 22.8673 39.4645 23.0842 39.7212 23.0685L41.1843 22.979C41.441 22.9633 41.6579 22.7182 41.6422 22.4615L41.0739 13.1695C41.0582 12.9128 40.813 12.6959 40.5563 12.7116L33.7029 13.1308L33.5082 9.94793C33.3999 8.17681 34.4324 7.36648 35.4848 7.30212C36.6142 7.23304 37.9657 7.84602 38.2046 7.96023C38.4963 8.09697 38.7289 8.10851 38.8641 7.79107L39.4352 6.59674C39.5509 6.38355 39.4808 6.07867 39.2676 5.96288C38.7081 5.66216 37.0664 4.93811 35.3467 5.0433C32.8055 5.19872 30.8315 7.04567 31.0184 10.1002L31.213 13.2831L30.0066 13.3569C29.7243 13.3742 29.5315 13.5921 29.5487 13.8744L29.6194 15.0295C29.6351 15.2862 29.8546 15.5046 30.1369 15.4874L31.3433 15.4136L31.8112 23.0628Z"
        fill="#151515" />
    <path
        d="M44.9777 22.2575C44.9934 22.5141 45.2385 22.731 45.4952 22.7153L46.7273 22.64C47.138 22.6149 47.4172 22.5462 47.3905 22.1099L46.9917 15.5901C47.0834 15.4042 47.7362 14.2821 49.225 14.1911C49.5586 14.1707 49.9499 14.2498 50.1087 14.3174C50.346 14.4059 50.5995 14.3389 50.7106 14.0487L51.2497 12.7532C51.4897 12.0429 50.2932 11.8585 49.3178 11.9181C47.444 12.0327 46.5696 13.3229 46.4057 13.5906L46.0699 12.7351C46.006 12.5329 45.7913 12.3915 45.6116 12.4024L44.8672 12.448C44.6105 12.4637 44.3936 12.7088 44.4093 12.9655L44.9777 22.2575Z"
        fill="#151515" />
    <path
        d="M52.4969 17.1342C52.6774 20.0861 54.8801 22.399 57.9859 22.209C59.7057 22.1038 61.0012 21.3805 61.7064 20.6932C61.9987 20.4177 61.9091 20.2171 61.7169 20.0227L60.9385 19.0913C60.7175 18.8472 60.5441 18.9608 60.247 19.1593C59.7541 19.5244 58.9321 19.9869 58.0081 20.0434C56.3396 20.1455 55.05 18.8589 54.8882 17.4775L61.87 17.0504C62.101 17.0363 62.2954 16.8441 62.3054 16.5858C62.32 16.4046 62.3253 16.0693 62.3143 15.8896C62.1463 13.1431 59.9704 11.2666 57.3009 11.4298C54.2207 11.6182 52.3195 14.2337 52.4969 17.1342ZM54.9177 15.8525C54.9932 14.5597 56.01 13.4927 57.3961 13.4079C58.6539 13.331 59.745 14.3206 59.8973 15.5479L54.9177 15.8525Z"
        fill="#151515" />
    <path
        d="M65.1063 21.0263C65.122 21.283 65.3671 21.4999 65.6238 21.4842L67.0869 21.3947C67.3436 21.379 67.5605 21.1339 67.5448 20.8772L66.5055 3.88471C66.4898 3.62803 66.2447 3.41114 65.988 3.42684L64.5249 3.51633C64.2682 3.53202 64.0513 3.77717 64.067 4.03385L65.1063 21.0263Z"
        fill="#151515" />
    <path
        d="M71.1984 6.63788C72.0454 6.58608 72.672 5.87788 72.6217 5.05649C72.5699 4.20943 71.8617 3.58287 71.0147 3.63468C70.1933 3.68492 69.5924 4.39155 69.6442 5.2386C69.6944 6.05999 70.377 6.68812 71.1984 6.63788ZM70.8717 20.6737C70.8874 20.9304 71.1325 21.1473 71.3892 21.1316L72.8523 21.0421C73.109 21.0264 73.3259 20.7813 73.3102 20.5246L72.7418 11.2326C72.7261 10.9759 72.481 10.759 72.2243 10.7747L70.7612 10.8642C70.5045 10.8799 70.2876 11.1251 70.3033 11.3818L70.8717 20.6737Z"
        fill="#151515" />
</svg>
