<svg width="132" height="35" viewBox="0 0 132 35" fill="none" xmlns="http://www.w3.org/2000/svg">
    <path
        d="M4.6282 14.0958L6.18028 14.7567C6.46491 14.8608 6.76991 14.8969 7.07094 14.8621C7.37198 14.8273 7.66068 14.7225 7.91399 14.5562L9.28057 13.5429C9.51458 13.3502 9.69964 13.1047 9.82057 12.8267C9.94151 12.5487 9.99491 12.246 9.97632 11.9433L9.78214 10.2508C9.7308 9.95265 9.61015 9.67065 9.42988 9.42765C9.24956 9.18464 9.01472 8.98737 8.74419 8.85177L7.19095 8.17204C6.9068 8.06645 6.60174 8.02925 6.30052 8.06343C5.9993 8.09762 5.71031 8.20221 5.45702 8.3688L4.09051 9.38205C3.85694 9.5752 3.67219 9.82069 3.55133 10.0986C3.43043 10.3765 3.37675 10.6791 3.39469 10.9816L3.5889 12.6741C3.63677 12.9766 3.756 13.2634 3.93673 13.5106C4.11745 13.7578 4.35451 13.9584 4.6282 14.0958Z"
        fill="#151515" />
    <path
        d="M13.8471 15.7387L12.2939 15.059C12.0099 14.9548 11.7055 14.9187 11.4051 14.9535C11.1047 14.9883 10.8166 15.093 10.5639 15.2593L9.18232 16.2734C8.94971 16.4674 8.76561 16.713 8.64481 16.9908C8.524 17.2685 8.46977 17.5706 8.48653 17.873L8.68079 19.5655C8.73209 19.8637 8.85274 20.1457 9.03302 20.3887C9.21333 20.6317 9.44818 20.829 9.71866 20.9646L11.2707 21.6255C11.5543 21.7311 11.8587 21.7683 12.1594 21.7342C12.46 21.7 12.7483 21.5955 13.0009 21.429L14.3712 20.4155C14.6039 20.2207 14.7879 19.9744 14.9086 19.6961C15.0294 19.4178 15.0836 19.1151 15.0668 18.8121L14.8728 17.1234C14.8201 16.8291 14.7002 16.551 14.5222 16.3108C14.3443 16.0706 14.1132 15.8748 13.8471 15.7387Z"
        fill="#151515" />
    <path
        d="M18.932 22.6159L17.3799 21.955C17.0957 21.8494 16.7907 21.8122 16.4895 21.8464C16.1883 21.8806 15.8993 21.9852 15.646 22.1518L14.2795 23.165C14.0464 23.3585 13.8619 23.6041 13.7411 23.882C13.6202 24.1598 13.5663 24.4621 13.5837 24.7646L13.7779 26.4571C13.832 26.7503 13.953 27.027 14.1315 27.2658C14.3099 27.5046 14.5411 27.6991 14.8069 27.834L16.359 28.4949C16.6436 28.599 16.9486 28.6351 17.2496 28.6003C17.5506 28.5655 17.8394 28.4608 18.0927 28.2944L19.463 27.281C19.6958 27.0874 19.8798 26.8418 20 26.5639C20.1203 26.2861 20.1734 25.9838 20.155 25.6816L19.9739 24.0185C19.923 23.7192 19.8021 23.4361 19.621 23.1924C19.44 22.9487 19.2039 22.7511 18.932 22.6159Z"
        fill="#151515" />
    <path
        d="M7.57827 19.0775L7.42591 17.7603C7.40915 17.4579 7.46335 17.1558 7.58419 16.878C7.70499 16.6003 7.88905 16.3547 8.1217 16.1607L10.7862 14.1875C11.0389 14.0213 11.327 13.9166 11.6274 13.8818C11.9278 13.847 12.2322 13.8832 12.5162 13.9873L13.7353 14.5174C14.0194 14.623 14.3245 14.6602 14.6257 14.626C14.927 14.5918 15.2159 14.4872 15.4692 14.3206L16.8355 13.3036C17.0688 13.1103 17.2534 12.8647 17.3743 12.5868C17.4951 12.309 17.5489 12.0066 17.5313 11.704L17.3373 10.0153C17.2865 9.71639 17.1661 9.43363 16.9857 9.18995C16.8053 8.94623 16.5702 8.74841 16.2992 8.61246L14.7459 7.93273C14.4613 7.82864 14.1563 7.79253 13.8553 7.82735C13.5542 7.86216 13.2655 7.96693 13.0122 8.13325L11.6146 9.13328C11.3818 9.32681 11.1978 9.57245 11.0776 9.85031C10.9573 10.1282 10.9042 10.4304 10.9226 10.7326L11.0712 12.05C11.0896 12.3522 11.0365 12.6545 10.9162 12.9324C10.796 13.2102 10.612 13.4559 10.3792 13.6493L7.71464 15.6225C7.46135 15.7891 7.17241 15.8937 6.87119 15.9279C6.56992 15.9621 6.2649 15.9249 5.98071 15.8193L4.76563 15.2927C4.48144 15.1871 4.17642 15.1499 3.87516 15.1841C3.57393 15.2183 3.28499 15.3229 3.03169 15.4895L1.66515 16.5027C1.43158 16.6959 1.24687 16.9414 1.12597 17.2193C1.00507 17.4973 0.951426 17.7998 0.969362 18.1023L1.16358 19.7948C1.21407 20.0938 1.33443 20.3767 1.51479 20.6205C1.69518 20.8642 1.93051 21.0619 2.20173 21.1976L3.75381 21.8585C4.0384 21.9627 4.34339 21.9988 4.64443 21.9639C4.94546 21.9291 5.2342 21.8244 5.48751 21.658L6.85406 20.6448C7.08811 20.4576 7.27533 20.2186 7.40105 19.9465C7.52674 19.6745 7.58741 19.377 7.57827 19.0775Z"
        fill="#151515" />
    <path
        d="M22.406 16.8934C22.3541 16.5949 22.2332 16.3126 22.053 16.0691C21.8728 15.8255 21.6382 15.6274 21.3679 15.4906L19.8158 14.8297C19.5312 14.7258 19.2262 14.6899 18.9252 14.7247C18.6242 14.7595 18.3355 14.8641 18.0821 15.0302L16.7155 16.0434C16.4824 16.237 16.2981 16.4825 16.1772 16.7604C16.0564 17.0382 16.0024 17.3405 16.0198 17.643L16.1724 18.9639C16.1897 19.2664 16.1358 19.5687 16.0149 19.8465C15.8941 20.1244 15.7097 20.37 15.4765 20.5635L12.8155 22.5327C12.5622 22.699 12.2735 22.8038 11.9725 22.8386C11.6714 22.8734 11.3664 22.8373 11.0818 22.7332L9.86274 22.2031C9.5788 22.099 9.2744 22.0628 8.97397 22.0976C8.67354 22.1324 8.38547 22.2371 8.13281 22.4034L6.75097 23.4138C6.51836 23.6077 6.33429 23.8533 6.21346 24.1311C6.09265 24.4088 6.03846 24.7109 6.05522 25.0134L6.2494 26.7058C6.30074 27.0041 6.42139 27.286 6.60166 27.5291C6.78198 27.7721 7.01682 27.9693 7.28735 28.1049L8.84059 28.7847C9.12409 28.8903 9.42852 28.9275 9.72914 28.8933C10.0298 28.8592 10.3181 28.7546 10.5708 28.5881L11.941 27.5746C12.1734 27.3805 12.3574 27.1348 12.4782 26.8572C12.599 26.5795 12.6533 26.2774 12.6369 25.9751L12.4843 24.6541C12.4666 24.3516 12.5204 24.0492 12.6413 23.7713C12.7621 23.4934 12.9467 23.2479 13.18 23.0546L15.8408 21.0816C16.0941 20.9151 16.3831 20.8104 16.6843 20.7762C16.9855 20.7421 17.2905 20.7793 17.5747 20.8849L18.7898 21.4115C19.074 21.517 19.3791 21.5542 19.6803 21.5201C19.9815 21.4859 20.2704 21.3813 20.5237 21.2147L21.8941 20.2012C22.1267 20.0075 22.3105 19.7618 22.4307 19.484C22.5509 19.2062 22.6041 18.904 22.5861 18.6019L22.406 16.8934Z"
        fill="#151515" />
    <path
        d="M27.0472 9.79668L32.6915 9.45146L35.9941 20.0037L37.9861 9.12763L43.8801 8.76714L39.5615 26.2781L33.193 26.6676L27.0472 9.79668Z"
        fill="#151515" />
    <path
        d="M50.4845 25.8106C49.086 25.8961 47.9679 25.5133 47.1304 24.6621C46.2928 23.8108 45.8267 22.611 45.732 21.0626L45.2615 13.3704L50.5562 13.0465L51.0129 20.514C51.0363 20.8969 51.1546 21.1905 51.3676 21.3947C51.5963 21.5813 51.8771 21.6644 52.2101 21.644C52.5431 21.6237 52.8783 21.5029 53.2157 21.2817L53.7028 24.7364C53.3538 25.0418 52.8842 25.2878 52.2939 25.4743C51.7204 25.6598 51.1172 25.7719 50.4845 25.8106ZM47.7943 11.3354C47.0118 11.3832 46.331 11.1825 45.752 10.7333C45.1887 10.2664 44.8851 9.67497 44.8413 8.95903C44.7975 8.24309 45.0439 7.62638 45.5805 7.10892C46.117 6.59145 46.7516 6.31031 47.4842 6.2655C48.2501 6.21866 48.923 6.42818 49.503 6.89407C50.0997 7.35894 50.4189 7.9327 50.4606 8.61534C50.5054 9.34793 50.2596 9.97296 49.723 10.4904C49.1864 11.0079 48.5435 11.2895 47.7943 11.3354Z"
        fill="#151515" />
    <path
        d="M54.4438 12.9842L59.7134 12.6619L59.8693 15.2094C60.1921 14.2036 60.664 13.4478 61.2848 12.9419C61.9212 12.4183 62.6807 12.1295 63.5631 12.0755L64.5364 16.1021C62.9547 16.1988 61.7999 16.445 61.072 16.8404C60.3598 17.2182 60.0261 17.7734 60.0709 18.506L60.468 24.9994L55.1984 25.3217L54.4438 12.9842Z"
        fill="#151515" />
    <path
        d="M72.9249 24.4381C71.5263 24.5236 70.2607 24.3253 69.1283 23.843C68.0124 23.3598 67.1169 22.6542 66.4418 21.7262C65.7824 20.7805 65.4139 19.6749 65.3365 18.4096C65.2591 17.1442 65.4989 16.0098 66.0559 15.0064C66.6119 13.9864 67.4147 13.1769 68.4643 12.5779C69.5306 11.9779 70.7631 11.6352 72.1616 11.5496C73.5769 11.4631 74.8424 11.6614 75.9582 12.1447C77.0897 12.6102 77.9847 13.3075 78.6431 14.2366C79.3016 15.1656 79.6695 16.2628 79.7469 17.5282C79.8253 18.8102 79.5866 19.9612 79.0306 20.9813C78.4903 21.9836 77.6875 22.7931 76.6222 23.4098C75.5725 24.0087 74.3401 24.3515 72.9249 24.4381ZM72.7457 20.6888C73.4283 20.6471 73.9708 20.3632 74.3732 19.8372C74.7911 19.2936 74.9757 18.6222 74.9268 17.823C74.8779 17.0238 74.6134 16.3882 74.1333 15.9162C73.6689 15.4266 73.0953 15.2026 72.4127 15.2443C71.73 15.2861 71.1797 15.5788 70.7618 16.1224C70.3594 16.6484 70.1827 17.311 70.2316 18.1102C70.2804 18.9094 70.5371 19.5538 71.0016 20.0435C71.4817 20.5155 72.063 20.7306 72.7457 20.6888Z"
        fill="#151515" />
    <path
        d="M89.4199 28.9692C88.5041 29.0253 87.6244 28.9871 86.7807 28.8549L86.9543 25.1342C87.6097 25.1944 88.2122 25.2077 88.7616 25.1741C89.7939 25.111 90.5576 24.7551 91.0527 24.1064C91.5488 23.4745 91.8031 22.4395 91.8154 21.0015C90.9176 22.4435 89.4614 23.2261 87.4467 23.3493C86.3478 23.4165 85.3149 23.1956 84.3479 22.6866C83.3975 22.1765 82.6181 21.4554 82.0096 20.5233C81.4177 19.5902 81.0867 18.5492 81.0164 17.4004C80.9451 16.2349 81.1463 15.153 81.6201 14.1548C82.0928 13.1398 82.7697 12.3213 83.6508 11.6992C84.5486 11.0761 85.5469 10.7309 86.6458 10.6637C87.6614 10.6016 88.5601 10.814 89.342 11.301C90.1394 11.7703 90.6817 12.439 90.9688 13.3072L90.7916 10.4102L96.0612 10.0879L96.6432 19.6032C96.8214 22.5169 96.2904 24.7638 95.05 26.3437C93.8274 27.9393 91.9506 28.8145 89.4199 28.9692ZM88.841 19.5038C89.5069 19.4631 90.0671 19.1949 90.5214 18.6992C90.9747 18.1868 91.1982 17.6049 91.1918 16.9535L91.1796 16.7537C91.1076 16.1231 90.8071 15.5816 90.278 15.1293C89.7657 14.676 89.1848 14.4692 88.5354 14.5089C87.8528 14.5507 87.2853 14.8361 86.8331 15.3651C86.3797 15.8775 86.174 16.475 86.2157 17.1576C86.2575 17.8402 86.535 18.4165 87.0484 18.8865C87.5608 19.3398 88.1583 19.5456 88.841 19.5038Z"
        fill="#151515" />
    <path
        d="M104.899 22.4825C103.817 22.5486 102.784 22.3277 101.8 21.8197C100.832 21.294 100.035 20.5572 99.4089 19.6095C98.7817 18.6452 98.431 17.5553 98.3566 16.3398C98.2833 15.141 98.5002 14.0415 99.0072 13.0412C99.5132 12.0242 100.224 11.212 101.139 10.6045C102.055 9.99703 103.045 9.6607 104.111 9.59552C104.977 9.54257 105.791 9.73511 106.553 10.1731C107.332 10.6102 107.942 11.2998 108.384 12.2421L108.207 9.34501L113.451 9.02423L114.227 21.7114L108.983 22.0321L108.841 19.7095C108.111 21.442 106.797 22.3664 104.899 22.4825ZM106.281 18.4372C106.947 18.3964 107.499 18.1287 107.937 17.634C108.39 17.1216 108.613 16.5398 108.607 15.8884L108.595 15.6886C108.521 15.0246 108.22 14.4748 107.692 14.0392C107.18 13.6025 106.608 13.4035 105.976 13.4422C105.276 13.485 104.692 13.7714 104.223 14.3015C103.77 14.8138 103.564 15.4113 103.606 16.094C103.649 16.7933 103.935 17.3691 104.464 17.8214C104.993 18.2736 105.598 18.4789 106.281 18.4372Z"
        fill="#151515" />
    <path
        d="M116.002 9.21916L121.022 8.91213L121.178 11.4595C122.026 9.4691 123.498 8.40973 125.596 8.28142C127.195 8.18366 128.479 8.6817 129.448 9.77554C130.433 10.8517 130.987 12.3971 131.11 14.4117L131.492 20.6554L126.247 20.9762L125.833 14.2081C125.79 13.4921 125.598 12.9523 125.258 12.5887C124.935 12.2241 124.499 12.0586 123.949 12.0922C123.55 12.1167 123.167 12.2738 122.8 12.5636C122.432 12.8368 122.138 13.2224 121.918 13.7206C121.715 14.2177 121.632 14.7742 121.669 15.3903L122.027 21.2343L116.757 21.5566L116.002 9.21916Z"
        fill="#151515" />
</svg>
